<svg width="41" height="41" viewBox="0 0 41 41" fill="none" xmlns="http://www.w3.org/2000/svg">
<path d="M30.7498 34.1667H6.83317V10.25H22.2082V6.83337H6.83317C4.954 6.83337 3.4165 8.37087 3.4165 10.25V34.1667C3.4165 36.0459 4.954 37.5834 6.83317 37.5834H30.7498C32.629 37.5834 34.1665 36.0459 34.1665 34.1667V18.7917H30.7498V34.1667ZM17.4419 28.7513L14.0936 24.7196L9.39567 30.75H28.1873L22.1398 22.7038L17.4419 28.7513ZM34.1665 6.83337V1.70837H30.7498V6.83337H25.6248C25.6419 6.85046 25.6248 10.25 25.6248 10.25H30.7498V15.358C30.7669 15.375 34.1665 15.358 34.1665 15.358V10.25H39.2915V6.83337H34.1665Z" fill="black"/>
</svg>
