<svg width="24" height="25" viewBox="0 0 24 25" fill="none" xmlns="http://www.w3.org/2000/svg">
<g clip-path="url(#clip0_64_5975)">
<path d="M9.80005 8V19.6C9.80005 19.9 9.70005 20.1 9.50005 20.2L8.50005 20.9C8.20005 21.1 7.70005 21 7.50005 20.7C7.50005 20.6 7.40005 20.5 7.40005 20.5L6.20005 15.5" stroke="#0969DA" stroke-width="2" stroke-linecap="round" stroke-linejoin="round"/>
<path d="M6 15.5C3.9 15.5 2.2 13.8 2.2 11.7C2.2 9.60001 3.9 8.00001 6 8.00001H9.8C9.8 8.00001 14.9 8.00001 19.8 3.90001C20.1 3.60001 20.6 3.70001 20.8 4.00001C20.9 4.10001 21 4.30001 21 4.50001V19.1C21 19.5 20.7 19.8 20.2 19.8C20 19.8 19.9 19.7 19.7 19.6C14.8 15.5 9.7 15.5 9.7 15.5H6V15.5Z" stroke="#0969DA" stroke-width="2" stroke-linecap="round" stroke-linejoin="round"/>
</g>
<defs>
<clipPath id="clip0_64_5975">
<rect width="24" height="24" fill="white" transform="matrix(-1 0 0 1 24 0.5)"/>
</clipPath>
</defs>
</svg>
