<svg width="24" height="24" viewBox="0 0 24 24" fill="none" xmlns="http://www.w3.org/2000/svg">
<g clip-path="url(#clip0_6_4936)">
<path d="M8.59981 22C8.09981 22 7.59981 21.8 7.29981 21.5L5.19981 20C4.19981 19.2 3.99981 17.8 4.69981 16.8C5.09981 16.3 5.19981 15.6 4.89981 14.9L4.79981 14.7C4.59981 14.1 4.19981 13.7 3.69981 13.5H3.59981C2.39981 13.1 1.69981 11.8 2.09981 10.6L2.89981 8C3.09981 7.4 3.49981 6.9 3.99981 6.6C4.49981 6.3 5.09981 6.3 5.69981 6.5C6.29981 6.7 6.99981 6.6 7.49981 6.2L7.59981 6.1C8.09981 5.7 8.29981 5.2 8.29981 4.6V4.3C8.29981 3 9.29981 2 10.5998 2H13.1998C13.7998 2 14.3998 2.2 14.7998 2.7C15.1998 3.1 15.4998 3.8 15.4998 4.4V4.7C15.4998 5.3 15.6998 5.8 16.1998 6.1L16.2998 6.2C16.7998 6.5 17.2998 6.6 17.8998 6.5L18.1998 6.4C19.3998 6 20.6998 6.6 21.0998 7.8V7.9L21.8998 10.4C22.2998 11.6 21.5998 12.9 20.3998 13.3L20.1998 13.4C19.5998 13.6 19.0998 14.1 18.9998 14.7C18.7998 15.3 18.8998 15.9 19.1998 16.3L19.4998 16.7C20.1998 17.7 19.9998 19.2 18.9998 19.9L16.9998 21.5C15.9998 22.3 14.5998 22.1 13.8998 21.1L13.7998 21L13.6998 20.8C13.3998 20.3 12.7998 20 12.1998 20C11.5998 20 11.0998 20.3 10.7998 20.8L10.4998 21C10.1998 21.5 9.59981 21.9 8.99981 22C8.89981 22 8.69981 22 8.59981 22ZM4.39981 11.6C5.49981 12 6.39981 12.9 6.79981 14.1V14.2C7.19981 15.4 7.09981 16.8 6.29981 17.8C6.19981 17.9 6.19981 18.2 6.29981 18.3L8.49981 20C8.59981 20.1 8.79981 20.1 8.89981 20L9.09981 19.7C10.2998 18 12.5998 17.6 14.2998 18.7C14.6998 19 14.9998 19.3 15.2998 19.7L15.3998 19.9C15.3998 20 15.4998 20 15.5998 20C15.6998 20 15.6998 20 15.7998 20L17.8998 18.4C17.9998 18.3 18.0998 18.1 17.9998 17.9L17.6998 17.5C16.9998 16.5 16.7998 15.2 17.1998 14.1C17.5998 12.9 18.4998 11.9 19.6998 11.5L19.8998 11.4C20.0998 11.3 20.1998 11.1 20.0998 11L19.2998 8.5C19.2998 8.4 19.1998 8.3 19.0998 8.3C18.9998 8.3 18.9998 8.3 18.8998 8.3L18.5998 8.4C17.2998 8.7 15.9998 8.5 14.9998 7.7V7.6C14.0998 6.9 13.4998 5.8 13.4998 4.6V4.3C13.4998 4.2 13.4998 4.1 13.3998 4C13.3998 4 13.2998 4 13.1998 4H10.6998C10.4998 4 10.3998 4.2 10.3998 4.3V4.5C10.3998 5.7 9.79981 6.9 8.89981 7.6L8.69981 7.8C7.69981 8.6 6.29981 8.8 5.09981 8.4H4.99981C4.89981 8.4 4.89981 8.5 4.89981 8.5L3.99981 11.1C3.89981 11.3 3.99981 11.5 4.19981 11.5L4.39981 11.6Z" fill="#8C9399"/>
<path d="M12 15.5C10.1 15.5 8.5 13.9 8.5 12C8.5 10.1 10.1 8.5 12 8.5C13.9 8.5 15.5 10.1 15.5 12C15.5 13.9 13.9 15.5 12 15.5ZM12 10.5C11.2 10.5 10.5 11.2 10.5 12C10.5 12.8 11.2 13.5 12 13.5C12.8 13.5 13.5 12.8 13.5 12C13.5 11.2 12.8 10.5 12 10.5Z" fill="#8C9399"/>
</g>
<defs>
<clipPath id="clip0_6_4936">
<rect width="24" height="24" fill="white"/>
</clipPath>
</defs>
</svg>
