<svg width="57" height="57" viewBox="0 0 57 57" fill="none" xmlns="http://www.w3.org/2000/svg">
<g clip-path="url(#clip0_510_113)">
<path d="M28.5 57C44.2401 57 57 44.2401 57 28.5C57 12.7599 44.2401 0 28.5 0C12.7599 0 0 12.7599 0 28.5C0 44.2401 12.7599 57 28.5 57Z" fill="#FFDCEA"/>
<path fill-rule="evenodd" clip-rule="evenodd" d="M30.5462 29.4681L27.5347 26.4566L33.0571 23.9457L30.5462 29.4681ZM34.2745 21.721L25.9049 25.5253C25.876 25.5375 25.8608 25.5649 25.8349 25.5801C25.7816 25.612 25.7375 25.647 25.6934 25.6912C25.6492 25.7353 25.6142 25.7794 25.5823 25.8327C25.5671 25.8586 25.5397 25.8738 25.5275 25.9027L21.7232 34.2723C21.5908 34.5614 21.6532 34.9007 21.8769 35.1244C22.0229 35.2705 22.2177 35.3481 22.4156 35.3481C22.5221 35.3481 22.6286 35.3253 22.7306 35.2797L31.1001 31.4753C31.1275 31.4616 31.1442 31.4357 31.1701 31.4205C31.2234 31.3886 31.2675 31.352 31.3101 31.3079C31.3542 31.2653 31.3908 31.2212 31.4227 31.1679C31.4379 31.142 31.4638 31.1253 31.4775 31.0979L35.2819 22.7284C35.4127 22.4392 35.3519 22.0999 35.1266 21.8747C34.9029 21.651 34.5636 21.5901 34.2745 21.721Z" fill="#FB96C0"/>
<path fill-rule="evenodd" clip-rule="evenodd" d="M26.9806 18.6087C27.4006 18.6087 27.7415 18.2678 27.7415 17.8478V16.6411L29.4854 18.3865C29.6315 18.5311 29.8262 18.6087 30.0241 18.6087C30.1215 18.6087 30.2204 18.5904 30.3147 18.5509C30.5993 18.4337 30.7849 18.1552 30.7849 17.8478V14.8043C30.7849 14.3843 30.4441 14.0435 30.0241 14.0435C29.6041 14.0435 29.2632 14.3843 29.2632 14.8043V16.0111L27.5193 14.2657C27.3002 14.0496 26.9745 13.9841 26.6899 14.1013C26.4054 14.2185 26.2197 14.497 26.2197 14.8043V17.8478C26.2197 18.2678 26.5606 18.6087 26.9806 18.6087Z" fill="#FB96C0"/>
<path fill-rule="evenodd" clip-rule="evenodd" d="M28.502 39.913C22.2081 39.913 17.089 34.7939 17.089 28.5C17.089 23.8313 19.889 19.68 24.2229 17.9239C24.509 17.8083 24.6976 17.5298 24.6976 17.2193V14.8043C24.6976 13.902 25.2303 13.0985 26.052 12.7302C26.4842 12.6633 26.9209 12.6115 27.3637 12.5796C27.6605 12.6298 27.9131 12.7074 28.1216 12.8276C28.2403 12.8946 28.3711 12.9296 28.502 12.9296C28.6329 12.9296 28.7653 12.8946 28.8824 12.8276C29.0863 12.7089 29.345 12.6298 29.6631 12.5811C30.0998 12.6115 30.5305 12.6648 30.9581 12.7302C31.7768 13.1 32.3063 13.9035 32.3063 14.8043V17.2193C32.3063 17.5298 32.495 17.8083 32.7811 17.9239C37.115 19.68 39.915 23.8313 39.915 28.5C39.915 34.7939 34.7959 39.913 28.502 39.913ZM42.1976 28.5C42.1976 28.08 42.5385 27.7391 42.9585 27.7391H45.964C45.9487 27.4226 45.9457 27.1015 45.9153 26.788C45.9016 26.645 45.8757 26.5065 45.8574 26.365C45.8057 25.9359 45.7448 25.5098 45.6626 25.0913C45.6368 24.9604 45.6033 24.8326 45.5759 24.7033C45.4785 24.2665 45.3705 23.8359 45.2426 23.4113C45.2153 23.32 45.1848 23.2317 45.1544 23.1404C45.0037 22.6687 44.8348 22.2061 44.6446 21.7511C44.6294 21.7146 44.6142 21.678 44.5989 21.6415C43.0757 18.0502 40.3898 15.0661 36.9507 13.1837C36.7909 13.0954 36.625 13.0178 36.4622 12.9341C36.1792 12.7911 35.8961 12.6496 35.604 12.5202C35.3057 12.3878 35.0013 12.2691 34.694 12.152C34.5357 12.0926 34.379 12.0333 34.2192 11.9785C33.819 11.84 33.4126 11.7183 33.0003 11.6072C32.9303 11.5889 32.8587 11.5707 32.7872 11.5524C32.317 11.4337 31.8392 11.3333 31.3553 11.2541C31.3446 11.2526 31.3355 11.2496 31.3248 11.248C31.3218 11.2465 31.3187 11.248 31.3157 11.248C30.7709 11.1598 30.22 11.0959 29.66 11.0593C29.6585 11.0578 29.657 11.0578 29.654 11.0578L29.4348 11.0426C29.4013 11.0396 29.3679 11.0441 29.3344 11.0426C29.0574 11.0289 28.7835 11 28.502 11C28.2387 11 27.9816 11.0274 27.7213 11.0396C27.6894 11.0411 27.6559 11.0365 27.6224 11.0396L27.3911 11.0548C27.3881 11.0548 27.385 11.0563 27.385 11.0563C26.8144 11.0928 26.2529 11.1567 25.6974 11.2465C25.6944 11.2465 25.6898 11.245 25.6868 11.2465C25.6746 11.248 25.6624 11.2511 25.6503 11.2541C25.1694 11.3333 24.6961 11.4322 24.229 11.5493C24.1529 11.5691 24.0783 11.5889 24.0022 11.6087C23.5929 11.7167 23.1911 11.837 22.794 11.9754C22.6296 12.0317 22.4683 12.0926 22.307 12.1535C22.0042 12.2691 21.7013 12.3863 21.4061 12.5172C21.1094 12.648 20.8203 12.7926 20.5326 12.9387C20.3744 13.0209 20.2131 13.0954 20.0579 13.1807C16.6142 15.0646 13.9268 18.0502 12.4035 21.6446C12.3883 21.6796 12.3746 21.713 12.3594 21.7465C12.1707 22.203 12.0003 22.6687 11.8481 23.1435C11.8192 23.2317 11.7903 23.32 11.7629 23.4098C11.6335 23.8343 11.524 24.268 11.4281 24.7063C11.3992 24.8341 11.3672 24.9604 11.3413 25.0898C11.2592 25.5098 11.1968 25.9374 11.145 26.368C11.1283 26.508 11.1024 26.6465 11.0887 26.788C11.0583 27.1015 11.0553 27.4211 11.04 27.7391H14.0455C14.4655 27.7391 14.8063 28.08 14.8063 28.5C14.8063 28.92 14.4655 29.2609 14.0455 29.2609H11.04C11.4326 38.303 18.699 45.5693 27.7411 45.962V42.9565C27.7411 42.5365 28.082 42.1957 28.502 42.1957C28.922 42.1957 29.2629 42.5365 29.2629 42.9565V45.962C38.305 45.5693 45.5713 38.303 45.964 29.2609H42.9585C42.5385 29.2609 42.1976 28.92 42.1976 28.5Z" fill="#F71272"/>
</g>
<defs>
<clipPath id="clip0_510_113">
<rect width="57" height="57" fill="white"/>
</clipPath>
</defs>
</svg>
