<svg width="24" height="25" viewBox="0 0 24 25" fill="none" xmlns="http://www.w3.org/2000/svg">
<path d="M22 1.5H2C1.73478 1.5 1.48043 1.60536 1.29289 1.79289C1.10536 1.98043 1 2.23478 1 2.5V22.5C1 22.7652 1.10536 23.0196 1.29289 23.2071C1.48043 23.3946 1.73478 23.5 2 23.5H22C22.2652 23.5 22.5196 23.3946 22.7071 23.2071C22.8946 23.0196 23 22.7652 23 22.5V2.5C23 2.23478 22.8946 1.98043 22.7071 1.79289C22.5196 1.60536 22.2652 1.5 22 1.5ZM13.71 15.79C13.8147 15.8796 13.8997 15.99 13.9597 16.114C14.0197 16.2381 14.0535 16.3732 14.0588 16.5109C14.0641 16.6487 14.0409 16.786 13.9906 16.9143C13.9404 17.0426 13.8641 17.1592 13.7667 17.2567C13.6692 17.3541 13.5526 17.4304 13.4243 17.4806C13.296 17.5309 13.1587 17.5541 13.0209 17.5488C12.8832 17.5435 12.7481 17.5097 12.624 17.4497C12.5 17.3897 12.3896 17.3047 12.3 17.2L8.3 13.2C8.11375 13.0126 8.00921 12.7592 8.00921 12.495C8.00921 12.2308 8.11375 11.9774 8.3 11.79L12.3 7.79C12.4913 7.62617 12.7374 7.54057 12.9891 7.55029C13.2407 7.56001 13.4795 7.66434 13.6576 7.84244C13.8357 8.02053 13.94 8.25927 13.9497 8.51095C13.9594 8.76262 13.8738 9.0087 13.71 9.2L10.41 12.5L13.71 15.79Z" fill="#A0A0A0"/>
</svg>
