<svg width="24" height="24" viewBox="0 0 24 24" fill="none" xmlns="http://www.w3.org/2000/svg">
<path d="M24 6.77148V17.2291C24 20.9681 20.9685 24 17.2291 24H6.77148C3.03148 24 0 20.9681 0 17.2291V6.77148C0 3.03148 3.03148 0 6.77148 0H17.2291C20.9685 0 24 3.03148 24 6.77148Z" fill="#646464"/>
<path d="M15.7385 17.4401C15.6504 16.9319 15.2948 15.0755 14.4734 12.8116C14.9341 12.7399 15.3818 12.7114 15.8018 12.7114C17.1816 12.7114 18.2609 13.0138 18.5115 13.0904C18.2134 14.8882 17.1841 16.4442 15.7385 17.4401ZM12 18.6021C10.4862 18.6021 9.08913 18.089 7.97398 17.2297C8.16283 16.8599 9.53149 14.3955 13.1469 13.1373C13.149 13.1363 13.1513 13.136 13.1543 13.1348C14.0607 15.4952 14.4445 17.476 14.55 18.09C13.7655 18.4197 12.9036 18.6021 12 18.6021ZM5.39904 12.0108C5.39904 11.956 5.39998 11.9019 5.40187 11.8476C5.441 11.848 5.49961 11.848 5.57522 11.848C6.39453 11.848 9.23772 11.7803 12.1679 10.9111C12.3456 11.2586 12.515 11.6119 12.6722 11.9646C12.5981 11.986 12.5255 12.0074 12.4529 12.031C9.15397 13.0963 7.3405 15.9171 7.06128 16.3784C6.0276 15.2135 5.39904 13.6842 5.39904 12.0108ZM9.16456 6.05823C9.39255 6.37166 10.5224 7.94883 11.5799 9.81789C8.74205 10.5642 6.22175 10.6126 5.61379 10.6126H5.54895C5.98601 8.59895 7.34636 6.92593 9.16456 6.05823ZM12 5.41832C13.6649 5.41832 15.1863 6.03686 16.3487 7.05561C16.1648 7.30666 15.167 8.55433 12.9399 9.39538C11.9091 7.51101 10.7805 5.95066 10.5119 5.58827C10.9905 5.47749 11.4885 5.41832 12 5.41832ZM17.141 7.88021C18.0325 8.98459 18.5739 10.3793 18.5991 11.8994C18.3025 11.8384 17.0467 11.6047 15.5459 11.6047C15.0615 11.6047 14.5519 11.6289 14.0409 11.6917C13.9978 11.5868 13.9547 11.4822 13.9091 11.3767C13.7766 11.065 13.6339 10.7557 13.4862 10.4514C15.7956 9.49954 16.9102 8.17871 17.141 7.88021ZM12 4.19692C7.69193 4.19692 4.18709 7.69779 4.18709 12C4.18709 16.3028 7.69193 19.8033 12 19.8033C16.3081 19.8033 19.8133 16.3028 19.8133 12C19.8133 7.69779 16.3081 4.19692 12 4.19692Z" fill="white"/>
</svg>
