<svg width="24" height="25" viewBox="0 0 24 25" fill="none" xmlns="http://www.w3.org/2000/svg">
<g clip-path="url(#clip0_64_5979)">
<path d="M20.6 4.7C20.4 4.5 20.1 4.5 19.8 4.5L12 6.3L4.2 4.5C3.7 4.4 3.1 4.7 3 5.3C3 5.3 3 5.4 3 5.5V17.7C3 18.2 3.3 18.6 3.8 18.7L11.8 20.5H12.2L20.2 18.7C20.7 18.6 21 18.2 21 17.7V5.5C21 5.2 20.9 4.9 20.6 4.7ZM5 6.7L11 8V18.1L5 16.7V6.7ZM19 16.9L13 18.3V8.1L19 6.8V16.9Z" fill="#8C9399"/>
</g>
<defs>
<clipPath id="clip0_64_5979">
<rect width="24" height="24" fill="white" transform="translate(0 0.5)"/>
</clipPath>
</defs>
</svg>
