<svg width="46" height="46" viewBox="0 0 46 46" fill="none" xmlns="http://www.w3.org/2000/svg">
<path d="M22.9993 1.91602C8.22185 1.91602 1.91602 8.22185 1.91602 22.9993C1.91602 37.7769 8.22185 44.0827 22.9993 44.0827C37.7769 44.0827 44.0827 37.7769 44.0827 22.9993C44.0827 8.22185 37.7769 1.91602 22.9993 1.91602ZM33.1673 18.2824C30.6526 22.2173 27.0723 27.1489 21.6653 30.3939C21.0443 30.7676 20.2643 30.758 19.6528 30.3689C16.7395 28.5232 14.5526 26.5452 12.7643 24.1436C12.1318 23.2945 12.3082 22.0947 13.1573 21.4622C14.0044 20.8297 15.2062 21.0079 15.8368 21.8551C17.1286 23.5897 18.6888 25.0732 20.6974 26.4647C24.8374 23.6663 27.6818 19.7429 29.9338 16.2182C30.5069 15.325 31.6914 15.0643 32.5808 15.6355C33.4739 16.2067 33.7365 17.3912 33.1673 18.2824Z" fill="#3B8D11" fill-opacity="0.82"/>
</svg>
