<svg width="18" height="18" viewBox="0 0 18 18" fill="none" xmlns="http://www.w3.org/2000/svg">
<path d="M9 0C4.032 0 0 4.032 0 9C0 13.968 4.032 18 9 18C13.968 18 18 13.968 18 9C18 4.032 13.968 0 9 0ZM13.608 6.768L7.968 12.408C7.848 12.528 7.68 12.6 7.488 12.6H7.44C7.248 12.6 7.08 12.528 6.96 12.408L4.152 9.6C4.032 9.48 3.96 9.312 3.96 9.12C3.96 8.952 4.032 8.784 4.152 8.64C4.392 8.4 4.848 8.4 5.088 8.64L7.368 10.92C7.416 10.968 7.488 10.968 7.536 10.92L12.648 5.808C12.888 5.568 13.344 5.568 13.584 5.808C13.704 5.928 13.776 6.096 13.776 6.288C13.776 6.48 13.728 6.624 13.608 6.768Z" fill="#0969DA"/>
</svg>
