<svg width="9" height="10" viewBox="0 0 9 10" fill="none" xmlns="http://www.w3.org/2000/svg">
<path d="M9 1.5C9 1.23478 8.89464 0.98043 8.70711 0.792893C8.51957 0.605357 8.26522 0.5 8 0.5H3C2.73478 0.5 2.48043 0.605357 2.29289 0.792893C2.10536 0.98043 2 1.23478 2 1.5V2.5H1C0.734784 2.5 0.48043 2.60536 0.292893 2.79289C0.105357 2.98043 0 3.23478 0 3.5V8.5C0 8.76522 0.105357 9.01957 0.292893 9.20711C0.48043 9.39464 0.734784 9.5 1 9.5H6C6.26522 9.5 6.51957 9.39464 6.70711 9.20711C6.89464 9.01957 7 8.76522 7 8.5V7.5H8C8.26522 7.5 8.51957 7.39464 8.70711 7.20711C8.89464 7.01957 9 6.76522 9 6.5V1.5ZM6 8.5H1V3.5H6V8.5ZM8 6.5H7V3.5C7 3.23478 6.89464 2.98043 6.70711 2.79289C6.51957 2.60536 6.26522 2.5 6 2.5H3V1.5H8V6.5Z" fill="black"/>
</svg>
