<svg width="24" height="24" viewBox="0 0 24 24" fill="none" xmlns="http://www.w3.org/2000/svg">
<g clip-path="url(#clip0_23_711)">
<path d="M22.25 0.25H1.75C0.9 0.25 0.25 0.95 0.25 1.75V22.2C0.25 23.05 0.95 23.7 1.75 23.7H22.2C23.05 23.7 23.7 23 23.7 22.2V1.75C23.75 0.95 23.05 0.25 22.25 0.25ZM17.65 16.1L16.1 17.65L12 13.55L7.9 17.65L6.35 16.1L10.45 12L6.35 7.9L7.9 6.35L12 10.45L16.1 6.35L17.65 7.9L13.55 12L17.65 16.1Z" fill="#0969DA"/>
</g>
<defs>
<clipPath id="clip0_23_711">
<rect width="24" height="24" fill="white"/>
</clipPath>
</defs>
</svg>
