<svg width="24" height="25" viewBox="0 0 24 25" fill="none" xmlns="http://www.w3.org/2000/svg">
<path d="M5 4.10001H8C9.1 4.10001 10 5.00001 10 6.10001V9.10001C10 10.2 9.1 11.1 8 11.1H5C3.9 11.1 3 10.2 3 9.10001V6.10001C3 5.00001 3.9 4.10001 5 4.10001Z" stroke="#9199A6" stroke-width="2" stroke-linecap="round" stroke-linejoin="round"/>
<path d="M14 6.2L16.1 4.1C16.9 3.3 18.1 3.3 18.9 4.1L21 6.2C21.8 7 21.8 8.2 21 9L18.9 11.1C18.1 11.9 16.9 11.9 16.1 11.1L14 9C13.2 8.3 13.2 7 14 6.2Z" stroke="#9199A6" stroke-width="2" stroke-linecap="round" stroke-linejoin="round"/>
<path d="M16 15.1H19C20.1 15.1 21 16 21 17.1V20.1C21 21.2 20.1 22.1 19 22.1H16C14.9 22.1 14 21.2 14 20.1V17.1C14 16 14.9 15.1 16 15.1Z" stroke="#9199A6" stroke-width="2" stroke-linecap="round" stroke-linejoin="round"/>
<path d="M5 15.1H8C9.1 15.1 10 16 10 17.1V20.1C10 21.2 9.1 22.1 8 22.1H5C3.9 22.1 3 21.2 3 20.1V17.1C3 16 3.9 15.1 5 15.1Z" stroke="#9199A6" stroke-width="2" stroke-linecap="round" stroke-linejoin="round"/>
</svg>
