<svg width="24" height="25" viewBox="0 0 24 25" fill="none" xmlns="http://www.w3.org/2000/svg">
<g clip-path="url(#clip0_343_4478)">
<path d="M9.80078 8V19.6C9.80078 19.9 9.70078 20.1 9.50078 20.2L8.50078 20.9C8.20078 21.1 7.70078 21 7.50078 20.7C7.50078 20.6 7.40078 20.5 7.40078 20.5L6.20078 15.5" stroke="#8C9399" stroke-width="2" stroke-linecap="round" stroke-linejoin="round"/>
<path d="M6 15.4999C3.9 15.4999 2.2 13.7999 2.2 11.6999C2.2 9.59989 3.9 7.99989 6 7.99989H9.8C9.8 7.99989 14.9 7.99989 19.8 3.89989C20.1 3.59989 20.6 3.69989 20.8 3.99989C20.9 4.09989 21 4.29989 21 4.49989V19.0999C21 19.4999 20.7 19.7999 20.2 19.7999C20 19.7999 19.9 19.6999 19.7 19.5999C14.8 15.4999 9.7 15.4999 9.7 15.4999H6V15.4999Z" stroke="#8C9399" stroke-width="2" stroke-linecap="round" stroke-linejoin="round"/>
</g>
<defs>
<clipPath id="clip0_343_4478">
<rect width="24" height="24" fill="white" transform="matrix(-1 0 0 1 24 0.5)"/>
</clipPath>
</defs>
</svg>
