<svg width="15" height="14" viewBox="0 0 15 14" fill="none" xmlns="http://www.w3.org/2000/svg">
<path d="M5.52513 1.11766C5.91967 1.11766 6.23951 1.43808 6.23951 1.83334C6.23951 2.22861 5.91967 2.54903 5.52513 2.54903H2.50884C2.20243 2.54903 1.95319 2.79872 1.95319 3.10569V12.012C1.95319 12.3189 2.20243 12.5686 2.50884 12.5686H11.399C11.7054 12.5686 11.9546 12.3189 11.9546 12.012V8.9902C11.9546 8.59494 12.2745 8.27452 12.669 8.27452C13.0635 8.27452 13.3834 8.59494 13.3834 8.9902V12.012C13.3834 13.1095 12.4945 14 11.399 14H2.50884C1.41334 14 0.524414 13.1095 0.524414 12.012V3.10569C0.524414 2.0082 1.41334 1.11766 2.50884 1.11766H5.52513ZM8.8191 3.18536C8.54011 2.90587 8.5401 2.45273 8.81908 2.17323C9.09806 1.89373 9.55039 1.89372 9.82938 2.17321L11.85 4.19745C12.129 4.47694 12.129 4.93009 11.85 5.20959C11.5711 5.48909 11.1187 5.48909 10.8397 5.20961L8.8191 3.18536ZM14.1549 3.91263L8.47405 9.60383C8.35047 9.72764 8.18587 9.80177 8.01141 9.81219L5.3256 9.97257C4.89817 9.9981 4.54449 9.64378 4.56997 9.21557L4.73006 6.52488C4.74046 6.3501 4.81446 6.1852 4.93804 6.0614L10.6188 0.370262C11.1959 -0.207962 12.133 -0.0736514 12.734 0.528502L13.9969 1.79369C14.5979 2.39581 14.7319 3.33456 14.1549 3.91263ZM13.1446 2.9005C13.0901 2.95511 13.0825 2.90192 12.9866 2.80582L11.7237 1.54063C11.6278 1.44452 11.5747 1.43692 11.6292 1.38232L6.14016 6.88135L6.04411 8.49575L7.65558 8.39952L13.1446 2.9005Z" fill="#8C9399"/>
</svg>
