<svg width="20" height="16" viewBox="0 0 20 16" fill="none" xmlns="http://www.w3.org/2000/svg">
<path d="M15.7856 0.621034C12.0014 -0.206566 8.00135 -0.205666 4.21625 0.621034C2.53405 0.989234 1.18595 2.14693 0.69765 3.64253C-0.23255 6.49213 -0.23255 9.50383 0.69765 12.3534C1.18595 13.849 2.53405 15.0067 4.21625 15.3749C6.10825 15.789 8.05455 15.9956 10.0008 15.9956C11.9471 15.9956 13.8934 15.7891 15.7856 15.375C17.4676 15.0068 18.8159 13.8491 19.3042 12.3535C20.2344 9.50393 20.2344 6.49223 19.3042 3.64263C18.8158 2.14693 17.4676 0.989234 15.7856 0.621034ZM4.64395 2.57513C6.39585 2.19143 8.19865 2.00003 10.0008 2.00003C11.8031 2.00003 13.6058 2.19143 15.3577 2.57523C15.6556 2.64033 15.9252 2.75443 16.1772 2.89023C14.8178 4.51513 13.2148 5.90353 11.3841 7.00203C10.5687 7.49423 9.43495 7.49573 8.61555 7.00053C6.78655 5.90333 5.18345 4.51503 3.82445 2.89023C4.07645 2.75433 4.34605 2.64023 4.64395 2.57513ZM17.4028 11.7324C17.1338 12.5571 16.35 13.2041 15.3579 13.4209C11.854 14.1885 8.14785 14.1885 4.64395 13.4209C3.65175 13.2041 2.86805 12.5571 2.59905 11.7324C1.82245 9.35483 1.80805 6.84533 2.54315 4.46063C3.99285 6.13053 5.67565 7.56893 7.58445 8.71383C8.30415 9.14843 9.13965 9.37793 10.0009 9.37793C10.8622 9.37793 11.6977 9.14843 12.4155 8.71533C14.3258 7.56923 16.0087 6.13073 17.4587 4.46073C18.1938 6.84543 18.1793 9.35483 17.4028 11.7324Z" fill="#6E6D72"/>
</svg>
