<svg width="47" height="47" viewBox="0 0 47 47" fill="none" xmlns="http://www.w3.org/2000/svg">
<path d="M23.5 4.40625C34.0442 4.40625 42.5938 12.9558 42.5938 23.5C42.5938 34.0442 34.0442 42.5938 23.5 42.5938C12.9558 42.5938 4.40625 34.0442 4.40625 23.5C4.40625 12.9558 12.9558 4.40625 23.5 4.40625Z" fill="#FFD52B"/>
<path d="M32.3125 20.5625C33.9348 20.5625 35.25 19.2473 35.25 17.625C35.25 16.0027 33.9348 14.6875 32.3125 14.6875C30.6902 14.6875 29.375 16.0027 29.375 17.625C29.375 19.2473 30.6902 20.5625 32.3125 20.5625Z" fill="#6E351D"/>
<path d="M14.6875 20.5625C16.3098 20.5625 17.625 19.2473 17.625 17.625C17.625 16.0027 16.3098 14.6875 14.6875 14.6875C13.0652 14.6875 11.75 16.0027 11.75 17.625C11.75 19.2473 13.0652 20.5625 14.6875 20.5625Z" fill="#6E351D"/>
<path d="M14.814 24.2344H32.1856C33.1036 24.2344 33.7895 25.0657 33.636 25.9697C33.567 26.3787 33.473 26.7797 33.3555 27.1719H13.6448C13.5273 26.7797 13.4333 26.3787 13.3643 25.9697C13.2108 25.0657 13.8967 24.2344 14.814 24.2344Z" fill="white"/>
<path d="M13.6445 27.1719H33.3552C32.7383 29.2502 31.4825 31.0494 29.8155 32.3419C29.25 31.0347 27.9575 30.1094 26.4373 30.1094C25.233 30.1094 24.1681 30.6895 23.4998 31.5781C22.8316 30.6895 21.7667 30.1094 20.5623 30.1094C19.0422 30.1094 17.7423 31.0347 17.1842 32.3419C15.5172 31.0494 14.2614 29.2502 13.6445 27.1719Z" fill="#6E351D"/>
<path d="M26.4377 30.1094C27.9579 30.1094 29.2504 31.0347 29.8158 32.3419C28.068 33.7078 25.8796 34.5156 23.5002 34.5156C21.1208 34.5156 18.9324 33.7078 17.1846 32.3419C17.7427 31.0347 19.0425 30.1094 20.5627 30.1094C21.7671 30.1094 22.8319 30.6895 23.5002 31.5781C24.1685 30.6895 25.2333 30.1094 26.4377 30.1094Z" fill="#ED464E"/>
<path d="M19.4608 39.6465C16.7362 39.648 14.1079 39.2367 11.6294 38.4847C14.89 41.0433 19.0135 42.5958 23.4998 42.5936C32.9975 42.8513 40.519 35.7749 42.2308 26.7817C37.5631 34.6183 29.2595 39.9124 19.4608 39.6465Z" fill="#F7C12B"/>
</svg>
