<svg width="47" height="48" viewBox="0 0 47 48" fill="none" xmlns="http://www.w3.org/2000/svg">
<path d="M23.5 4.90625C34.0442 4.90625 42.5938 13.4566 42.5938 24C42.5938 34.5434 34.0442 43.0938 23.5 43.0938C12.9558 43.0938 4.40625 34.5434 4.40625 24C4.40625 13.4566 12.9558 4.90625 23.5 4.90625Z" fill="#FFD52B"/>
<path d="M32.3125 21.0625C33.9348 21.0625 35.25 19.7473 35.25 18.125C35.25 16.5027 33.9348 15.1875 32.3125 15.1875C30.6902 15.1875 29.375 16.5027 29.375 18.125C29.375 19.7473 30.6902 21.0625 32.3125 21.0625Z" fill="#6E351D"/>
<path d="M14.6875 21.0625C16.3098 21.0625 17.625 19.7473 17.625 18.125C17.625 16.5027 16.3098 15.1875 14.6875 15.1875C13.0652 15.1875 11.75 16.5027 11.75 18.125C11.75 19.7473 13.0652 21.0625 14.6875 21.0625Z" fill="#6E351D"/>
<path d="M27.7381 27.6719C27.4627 27.6756 27.3907 27.4795 27.1285 26.7047C26.9772 26.3287 26.7672 25.7824 26.2252 25.2095C25.6855 24.6441 24.8351 24.0323 23.4618 24.0103C22.8949 24.0213 22.2817 24.1799 21.8454 24.4069C21.3909 24.6345 21.0413 24.9239 20.7747 25.2095C20.2327 25.7824 20.022 26.3287 19.8714 26.7047C19.7282 27.0866 19.6629 27.2915 19.5755 27.4824C19.4888 27.6455 19.3875 27.6873 19.2619 27.6814C19.1363 27.6756 19.0174 27.6506 18.9145 27.5147C18.8631 27.4464 18.8161 27.3502 18.7743 27.2151C18.7478 27.0697 18.7221 26.8589 18.7376 26.6034C18.7625 26.1025 18.9307 25.3373 19.585 24.4384C20.2482 23.5807 21.4893 22.5467 23.5389 22.5225C23.7607 22.5401 23.912 22.5261 24.1785 22.5717C24.4275 22.6018 24.6507 22.6495 24.852 22.7097C25.2662 22.8199 25.6326 22.991 25.9616 23.168C26.6115 23.5425 27.0808 24.0008 27.4171 24.4377C28.0715 25.3373 28.2396 26.1025 28.2646 26.6026C28.2881 27.1094 28.1926 27.3774 28.0876 27.5169C27.9833 27.6565 27.8644 27.6712 27.7381 27.6719Z" fill="#6E351D"/>
<path d="M19.4609 40.1468C16.7364 40.1482 14.108 39.737 11.6295 38.9842C14.8901 41.5435 19.0137 43.096 23.5 43.0938C32.9976 43.3516 40.5191 36.2751 42.2309 27.2827C37.5632 35.1185 29.2597 40.4126 19.4609 40.1468Z" fill="#F7C12B"/>
</svg>
