<svg width="47" height="47" viewBox="0 0 47 47" fill="none" xmlns="http://www.w3.org/2000/svg">
<path d="M23.5 4.40625C34.0442 4.40625 42.5938 12.9558 42.5938 23.5C42.5938 34.0442 34.0442 42.5938 23.5 42.5938C12.9558 42.5938 4.40625 34.0442 4.40625 23.5C4.40625 12.9558 12.9558 4.40625 23.5 4.40625Z" fill="#FFD52B"/>
<path d="M32.3125 20.5625C33.9348 20.5625 35.25 19.2473 35.25 17.625C35.25 16.0027 33.9348 14.6875 32.3125 14.6875C30.6902 14.6875 29.375 16.0027 29.375 17.625C29.375 19.2473 30.6902 20.5625 32.3125 20.5625Z" fill="#6E351D"/>
<path d="M14.6875 20.5625C16.3098 20.5625 17.625 19.2473 17.625 17.625C17.625 16.0027 16.3098 14.6875 14.6875 14.6875C13.0652 14.6875 11.75 16.0027 11.75 17.625C11.75 19.2473 13.0652 20.5625 14.6875 20.5625Z" fill="#6E351D"/>
<path d="M14.8149 24.2344H32.1866C33.1046 24.2344 33.7905 25.0657 33.637 25.9697C33.5679 26.3787 33.4739 26.7797 33.3564 27.1719H13.6458C13.5283 26.7797 13.4343 26.3787 13.3653 25.9697C13.2118 25.0657 13.8977 24.2344 14.8149 24.2344Z" fill="white"/>
<path d="M13.6445 27.1719H33.3552C32.7383 29.2502 31.4825 31.0494 29.8155 32.3419C29.25 31.0347 27.9575 30.1094 26.4373 30.1094C25.233 30.1094 24.1681 30.6895 23.4998 31.5781C22.8316 30.6895 21.7667 30.1094 20.5623 30.1094C19.0422 30.1094 17.7423 31.0347 17.1842 32.3419C15.5172 31.0494 14.2614 29.2502 13.6445 27.1719Z" fill="#6E351D"/>
<path d="M26.4367 30.1094C27.9569 30.1094 29.2494 31.0347 29.8148 32.3419C28.067 33.7078 25.8786 34.5156 23.4992 34.5156C21.1198 34.5156 18.9314 33.7078 17.1836 32.3419C17.7417 31.0347 19.0416 30.1094 20.5617 30.1094C21.7661 30.1094 22.8309 30.6895 23.4992 31.5781C24.1675 30.6895 25.2323 30.1094 26.4367 30.1094Z" fill="#ED464E"/>
<path d="M19.4603 39.646C16.7357 39.6475 14.1074 39.2362 11.6289 38.4842C14.8895 41.0428 19.013 42.5953 23.4993 42.5931C32.997 42.8508 40.5185 35.7744 42.2303 26.7812C37.5626 34.6178 29.259 39.9119 19.4603 39.646Z" fill="#F7C12B"/>
</svg>
