<svg width="47" height="48" viewBox="0 0 47 48" fill="none" xmlns="http://www.w3.org/2000/svg">
<path d="M23.5 4.90625C34.0442 4.90625 42.5938 13.4558 42.5938 24C42.5938 34.5442 34.0442 43.0938 23.5 43.0938C12.9558 43.0938 4.40625 34.5442 4.40625 24C4.40625 13.4558 12.9558 4.90625 23.5 4.90625Z" fill="#FFD52B"/>
<path d="M32.3125 21.0625C33.9348 21.0625 35.25 19.7473 35.25 18.125C35.25 16.5027 33.9348 15.1875 32.3125 15.1875C30.6902 15.1875 29.375 16.5027 29.375 18.125C29.375 19.7473 30.6902 21.0625 32.3125 21.0625Z" fill="#6E351D"/>
<path d="M14.6875 21.0625C16.3098 21.0625 17.625 19.7473 17.625 18.125C17.625 16.5027 16.3098 15.1875 14.6875 15.1875C13.0652 15.1875 11.75 16.5027 11.75 18.125C11.75 19.7473 13.0652 21.0625 14.6875 21.0625Z" fill="#6E351D"/>
<path d="M14.8138 24.7344H32.1855C33.1035 24.7344 33.7894 25.5657 33.6359 26.4697C33.5668 26.8787 33.4728 27.2797 33.3553 27.6719H13.6447C13.5272 27.2797 13.4332 26.8787 13.3642 26.4697C13.2107 25.5657 13.8966 24.7344 14.8138 24.7344Z" fill="white"/>
<path d="M13.6447 27.6719H33.3553C32.7384 29.7502 31.4826 31.5494 29.8156 32.8419C29.2501 31.5347 27.9576 30.6094 26.4375 30.6094C25.2331 30.6094 24.1682 31.1895 23.5 32.0781C22.8317 31.1895 21.7668 30.6094 20.5625 30.6094C19.0423 30.6094 17.7425 31.5347 17.1843 32.8419C15.5173 31.5494 14.2615 29.7502 13.6447 27.6719Z" fill="#6E351D"/>
<path d="M26.4375 30.6094C27.9576 30.6094 29.2501 31.5347 29.8156 32.8419C28.0678 34.2078 25.8793 35.0156 23.5 35.0156C21.1206 35.0156 18.9321 34.2078 17.1843 32.8419C17.7425 31.5347 19.0423 30.6094 20.5625 30.6094C21.7668 30.6094 22.8317 31.1895 23.5 32.0781C24.1682 31.1895 25.2331 30.6094 26.4375 30.6094Z" fill="#ED464E"/>
<path d="M19.4609 40.1465C16.7364 40.148 14.108 39.7367 11.6295 38.9847C14.8901 41.5433 19.0137 43.0958 23.5 43.0936C32.9976 43.3513 40.5191 36.2749 42.2309 27.2817C37.5632 35.1183 29.2597 40.4124 19.4609 40.1465Z" fill="#F7C12B"/>
</svg>
