<svg width="44" height="43" viewBox="0 0 44 43" fill="none" xmlns="http://www.w3.org/2000/svg">
<path d="M1.50684 21.5005C1.50684 32.8221 10.685 42 22.0068 42C33.3287 42 42.5068 32.8221 42.5068 21.5005C42.5068 10.179 33.3287 1 22.0068 1C10.685 1 1.50684 10.179 1.50684 21.5005Z" fill="#6DBF00"/>
<path d="M22.0068 1.22891C33.1845 1.22891 42.2782 10.3231 42.2782 21.5005C42.2782 32.678 33.1845 41.7722 22.0068 41.7722C10.8291 41.7722 1.73542 32.678 1.73542 21.5005C1.73542 10.3231 10.8291 1.22891 22.0068 1.22891ZM22.0068 43C33.8619 43 43.5068 33.356 43.5068 21.5005C43.5068 9.64513 33.8619 0 22.0068 0C10.1517 0 0.506836 9.64513 0.506836 21.5005C0.506836 33.356 10.1517 43 22.0068 43Z" fill="#007800"/>
<path d="M26.5068 17.4995C26.5068 18.8801 27.85 20 29.5068 20C31.1638 20 32.5068 18.8801 32.5068 17.4995C32.5068 16.1189 31.1638 15 29.5068 15C27.85 15 26.5068 16.1189 26.5068 17.4995Z" fill="#006300"/>
<path d="M11.5068 17.4995C11.5068 18.8801 12.8499 20 14.5069 20C16.1638 20 17.5068 18.8801 17.5068 17.4995C17.5068 16.1189 16.1638 15 14.5069 15C12.8499 15 11.5068 16.1189 11.5068 17.4995Z" fill="#006300"/>
<path d="M21.5596 32C25.0562 32 28.206 30.5968 29.9253 29.3927C30.6286 28.8993 30.7045 28.0391 30.0956 27.4705C29.4868 26.9028 28.426 26.8404 27.7231 27.3311C27.4584 27.5136 21.4989 31.5378 16.3816 27.3989C15.7245 26.867 14.6574 26.867 14.0002 27.3989C13.3424 27.9308 13.3424 28.7938 14.0002 29.3258C16.4373 31.2975 19.0855 32 21.5596 32Z" fill="#006300"/>
</svg>
