<svg width="43" height="42" viewBox="0 0 43 42" fill="none" xmlns="http://www.w3.org/2000/svg">
<path d="M41.5068 21.0005C41.5068 32.046 32.5525 41 21.5068 41C10.4611 41 1.50684 32.046 1.50684 21.0005C1.50684 9.95403 10.4611 1 21.5068 1C32.5525 1 41.5068 9.95403 41.5068 21.0005Z" fill="#FF9100"/>
<path d="M21.5068 1.20034C10.5892 1.20034 1.70685 10.083 1.70685 21.0005C1.70685 31.918 10.5892 40.7997 21.5068 40.7997C32.4246 40.7997 41.3068 31.918 41.3068 21.0005C41.3068 10.083 32.4246 1.20034 21.5068 1.20034ZM21.5068 42C9.92734 42 0.506836 32.5792 0.506836 21.0005C0.506836 9.42082 9.92734 0 21.5068 0C33.0864 0 42.5068 9.42082 42.5068 21.0005C42.5068 32.5792 33.0864 42 21.5068 42Z" fill="#A65F00"/>
<path d="M16.5068 16.9994C16.5068 18.6562 15.1638 20 13.5068 20C11.8499 20 10.5068 18.6562 10.5068 16.9994C10.5068 15.3427 11.8499 14 13.5068 14C15.1638 14 16.5068 15.3427 16.5068 16.9994Z" fill="#FF5800"/>
<path d="M32.5068 16.9994C32.5068 18.6562 31.1637 20 29.5068 20C27.85 20 26.5068 18.6562 26.5068 16.9994C26.5068 15.3427 27.85 14 29.5068 14C31.1637 14 32.5068 15.3427 32.5068 16.9994Z" fill="#FF5800"/>
<path d="M27.921 32C27.5545 32 27.1867 31.8691 26.8876 31.6039C26.648 31.3926 21.0346 26.5497 16.2125 31.5202C15.5933 32.1596 14.5904 32.1596 13.9712 31.5202C13.3521 30.882 13.3521 29.8476 13.9712 29.2094C19.5084 23.4983 26.196 26.6608 28.9594 29.129C29.6212 29.7211 29.6931 30.7532 29.1198 31.4355C28.8065 31.8085 28.3649 32 27.921 32Z" fill="#FF5800"/>
</svg>
