<svg width="44" height="43" viewBox="0 0 44 43" fill="none" xmlns="http://www.w3.org/2000/svg">
<path d="M0.506836 20.9995C0.506836 32.5983 10.1328 42 22.0068 42C33.881 42 43.5068 32.5983 43.5068 20.9995C43.5068 9.40174 33.881 0 22.0068 0C10.1328 0 0.506836 9.40174 0.506836 20.9995Z" fill="#FFC800"/>
<path d="M22.0068 1.22782C33.1846 1.22782 42.2782 10.322 42.2782 21.4995C42.2782 32.6769 33.1846 41.7711 22.0068 41.7711C10.829 41.7711 1.73542 32.6769 1.73542 21.4995C1.73542 10.322 10.829 1.22782 22.0068 1.22782ZM22.0068 43C33.8619 43 43.5068 33.3549 43.5068 21.4995C43.5068 9.64404 33.8619 0 22.0068 0C10.1517 0 0.506836 9.64404 0.506836 21.4995C0.506836 33.3549 10.1517 43 22.0068 43Z" fill="#967600"/>
<path d="M26.5068 17.0006C26.5068 18.6573 27.8499 20 29.5068 20C31.1636 20 32.5068 18.6573 32.5068 17.0006C32.5068 15.3438 31.1636 14 29.5068 14C27.8499 14 26.5068 15.3438 26.5068 17.0006Z" fill="#FF7C00"/>
<path d="M11.5068 17.0006C11.5068 18.6573 12.8499 20 14.5069 20C16.1638 20 17.5068 18.6573 17.5068 17.0006C17.5068 15.3438 16.1638 14 14.5069 14C12.8499 14 11.5068 15.3438 11.5068 17.0006Z" fill="#FF7C00"/>
<path d="M16.0532 31H27.9605C28.8146 31 29.5068 30.3285 29.5068 29.4995C29.5068 28.6715 28.8146 28 27.9605 28H16.0532C15.1991 28 14.5068 28.6715 14.5068 29.4995C14.5068 30.3285 15.1991 31 16.0532 31Z" fill="#FF7C00"/>
</svg>
