<svg width="44" height="44" viewBox="0 0 44 44" fill="none" xmlns="http://www.w3.org/2000/svg">
<path d="M42.8348 21.5065C42.8348 33.014 33.5068 42.3418 22.0001 42.3418C10.4934 42.3418 1.16528 33.014 1.16528 21.5065C1.16528 10.0001 10.4934 0.672302 22.0001 0.672302C33.5068 0.672302 42.8348 10.0001 42.8348 21.5065Z" fill="#009400"/>
<path d="M22 1.2293C10.8188 1.2293 1.72214 10.3253 1.72214 21.5063C1.72214 32.6884 10.8188 41.7844 22 41.7844C33.1813 41.7844 42.278 32.6884 42.278 21.5063C42.278 10.3253 33.1813 1.2293 22 1.2293ZM22 43.0137C10.1411 43.0137 0.493164 33.3655 0.493164 21.5063C0.493164 9.64819 10.1411 0 22 0C33.8589 0 43.5068 9.64819 43.5068 21.5063C43.5068 33.3655 33.8589 43.0137 22 43.0137Z" fill="#004F00"/>
<path d="M30.7372 25.54C30.7372 28.3878 29.5153 30.9404 27.5858 32.6595C26.0011 34.0903 23.9263 34.9492 21.6641 34.9492C19.4018 34.9492 17.3271 34.0903 15.7423 32.6595C13.8127 30.9404 12.5908 28.3878 12.5908 25.54H30.7372Z" fill="#006300"/>
<path d="M27.3767 32.8276C25.8479 34.1533 23.8463 34.9492 21.6639 34.9492C19.4815 34.9492 17.48 34.1533 15.9512 32.8276C17.1064 30.8812 19.2306 29.5725 21.6639 29.5725C24.0972 29.5725 26.2213 30.8812 27.3767 32.8276Z" fill="#008700"/>
<path d="M16.6729 18.1465C15.9578 18.1465 15.3781 17.5956 15.3781 16.9166C15.3781 16.4261 15.1533 15.9606 14.7613 15.6419C14.1114 15.1046 13.0801 15.1108 12.4422 15.6357C12.0445 15.9606 11.8197 16.425 11.8197 16.9166C11.8197 17.5956 11.24 18.1465 10.525 18.1465C9.80998 18.1465 9.23035 17.5956 9.23035 16.9166C9.23035 15.7086 9.78377 14.563 10.7488 13.7768C11.5327 13.129 12.5471 12.7698 13.5987 12.7698C14.6504 12.7698 15.6647 13.129 16.4547 13.782C17.4137 14.5641 17.9675 15.7086 17.9675 16.9166C17.9675 17.5956 17.3877 18.1465 16.6729 18.1465Z" fill="#006300"/>
<path d="M33.475 18.1465C32.7599 18.1465 32.1802 17.5956 32.1802 16.9166C32.1802 16.4261 31.9555 15.9606 31.5635 15.6419C30.9136 15.1046 29.8822 15.1108 29.2443 15.6357C28.8466 15.9606 28.6219 16.425 28.6219 16.9166C28.6219 17.5956 28.0421 18.1465 27.3271 18.1465C26.6121 18.1465 26.0325 17.5956 26.0325 16.9166C26.0325 15.7086 26.586 14.563 27.5509 13.7768C28.3348 13.129 29.3493 12.7698 30.4009 12.7698C31.4526 12.7698 32.4669 13.129 33.2568 13.782C34.2159 14.5641 34.7696 15.7086 34.7696 16.9166C34.7696 17.5956 34.19 18.1465 33.475 18.1465Z" fill="#006300"/>
</svg>
