<svg width="47" height="48" viewBox="0 0 47 48" fill="none" xmlns="http://www.w3.org/2000/svg">
<path d="M23.5 4.90625C34.0434 4.90625 42.5938 13.4558 42.5938 24C42.5938 34.5442 34.0434 43.0938 23.5 43.0938C12.9566 43.0938 4.40625 34.5442 4.40625 24C4.40625 13.4558 12.9566 4.90625 23.5 4.90625Z" fill="#FFD52B"/>
<path d="M33.0469 16.6562C34.2659 16.6562 35.25 17.6403 35.25 18.8594C35.25 20.0784 34.2659 21.0625 33.0469 21.0625C31.8278 21.0625 30.8438 20.0784 30.8438 18.8594C30.8438 17.6403 31.8278 16.6562 33.0469 16.6562Z" fill="#6E351D"/>
<path d="M13.9531 16.6562C15.1722 16.6562 16.1562 17.6403 16.1562 18.8594C16.1562 20.0784 15.1722 21.0625 13.9531 21.0625C12.7341 21.0625 11.75 20.0784 11.75 18.8594C11.75 17.6403 12.7341 16.6562 13.9531 16.6562Z" fill="#6E351D"/>
<path d="M32.3125 25.6367C32.3125 26.1412 31.3519 26.2147 23.5 26.2147C15.6481 26.2147 14.6875 26.1412 14.6875 25.6367C14.6875 25.1322 15.0554 24.7231 23.5 24.7231C31.9446 24.7231 32.3125 25.1322 32.3125 25.6367Z" fill="#6E351D"/>
<path d="M27.9062 28.5742C27.9062 29.0787 27.4267 29.1522 23.5 29.1522C19.5733 29.1522 19.0938 29.0787 19.0938 28.5742C19.0938 28.0697 19.2773 27.6606 23.5 27.6606C27.7227 27.6606 27.9062 28.0697 27.9062 28.5742Z" fill="#E6A627"/>
<path d="M19.4609 40.1465C16.7364 40.148 14.108 39.7367 11.6295 38.9847C14.8901 41.5433 19.0144 43.0958 23.5 43.0936C32.9984 43.3513 40.5191 36.2749 42.2309 27.2817C37.5632 35.1183 29.2597 40.4124 19.4609 40.1465Z" fill="#F7C12B"/>
</svg>
