<svg width="44" height="44" viewBox="0 0 44 44" fill="none" xmlns="http://www.w3.org/2000/svg">
<path d="M1.50684 22.9995C1.50684 34.0456 10.6851 43 22.0069 43C33.3287 43 42.5068 34.0456 42.5068 22.9995C42.5068 11.9544 33.3287 3 22.0069 3C10.6851 3 1.50684 11.9544 1.50684 22.9995Z" fill="#FF0000"/>
<path d="M22.0069 4.20965C33.1845 4.20965 42.2782 12.8627 42.2782 23.4995C42.2782 34.1362 33.1845 42.7903 22.0069 42.7903C10.8292 42.7903 1.73532 34.1362 1.73532 23.4995C1.73532 12.8627 10.8292 4.20965 22.0069 4.20965ZM22.0069 44C33.862 44 43.5068 34.8036 43.5068 23.4995C43.5068 12.1964 33.862 3 22.0069 3C10.1516 3 0.506836 12.1964 0.506836 23.4995C0.506836 34.8036 10.1516 44 22.0069 44Z" fill="#8C0000"/>
<path d="M32.4783 22C32.7414 22 33.0045 21.9165 33.2055 21.7495C33.6073 21.4146 33.6073 20.8719 33.2055 20.537L29.2625 17.2512C28.8608 16.9163 28.2099 16.9163 27.8082 17.2512C27.4064 17.5852 27.4064 18.1288 27.8082 18.4628L31.7509 21.7495C31.9518 21.9165 32.2149 22 32.4783 22Z" fill="#990404"/>
<path d="M28.5354 22C28.7985 22 29.0617 21.9165 29.2625 21.7495L33.2055 18.4628C33.6073 18.1288 33.6073 17.5852 33.2055 17.2512C32.8036 16.9163 32.1527 16.9163 31.7509 17.2512L27.8082 20.537C27.4064 20.8719 27.4064 21.4146 27.8082 21.7495C28.009 21.9165 28.2723 22 28.5354 22Z" fill="#990404"/>
<path d="M15.4782 22C15.7414 22 16.0047 21.9165 16.2055 21.7495C16.6073 21.4146 16.6073 20.8719 16.2055 20.537L12.2627 17.2512C11.8608 16.9163 11.2099 16.9163 10.8082 17.2512C10.4064 17.5852 10.4064 18.1288 10.8082 18.4628L14.7511 21.7495C14.952 21.9165 15.2151 22 15.4782 22Z" fill="#990404"/>
<path d="M11.5354 22C11.7986 22 12.0618 21.9165 12.2627 21.7495L16.2055 18.4628C16.6073 18.1288 16.6073 17.5852 16.2055 17.2512C15.8038 16.9163 15.1529 16.9163 14.7511 17.2512L10.8082 20.537C10.4064 20.8719 10.4064 21.4146 10.8082 21.7495C11.0091 21.9165 11.2723 22 11.5354 22Z" fill="#990404"/>
<path d="M13.5068 31.5034C13.5068 32.55 13.8811 33.5187 14.5026 34.2882C14.6095 34.4267 14.723 34.5515 14.85 34.6775C15.6719 35.4939 16.8146 36 18.071 36H25.9429C27.3863 36 28.6826 35.329 29.5112 34.2882C30.1327 33.5187 30.5068 32.55 30.5068 31.5034C30.5068 30.2656 29.9924 29.1401 29.1637 28.3237C28.3418 27.5072 27.1991 27 25.9429 27H18.071C15.5584 27 13.5068 29.0279 13.5068 31.5034Z" fill="#990404"/>
<path d="M14.5068 34.428C14.6137 34.5552 14.7271 34.6698 14.854 34.7855C15.6755 35.5352 16.8176 36 18.0732 36H25.9406C27.3832 36 28.6787 35.3838 29.5068 34.428C27.8105 32.3544 25.0791 31 22.0068 31C18.928 31 16.2032 32.3544 14.5068 34.428Z" fill="#C40E0E"/>
<path d="M22.3234 0H17.5068L20.5369 3.90899H17.5068L26.5068 11L23.2731 5.5H26.0319L22.3234 0Z" fill="#990404"/>
</svg>
