<svg width="16" height="16" viewBox="0 0 16 16" fill="none" xmlns="http://www.w3.org/2000/svg">
<g clip-path="url(#clip0_12_422)">
<path d="M6.21275 16H1.51825C0.666875 16 0 15.3449 0 14.5084V9.80287C0 8.96537 0.681125 8.284 1.51825 8.284H4.38725C4.66338 8.284 4.88725 8.50787 4.88725 8.784C4.88725 9.06012 4.66338 9.284 4.38725 9.284H1.51825C1.2325 9.28387 1 9.51675 1 9.80287V14.5085C1 14.7887 1.22288 15 1.51825 15H6.21275C6.504 15 6.73213 14.784 6.73213 14.5084V11.629C6.73213 11.3529 6.956 11.129 7.23213 11.129C7.50825 11.129 7.73213 11.3529 7.73213 11.629V14.5084C7.73213 15.3449 7.06475 16 6.21275 16Z" fill="black"/>
<path d="M14.1414 10.8274H8.78699C8.51086 10.8274 8.28699 10.6035 8.28699 10.3274C8.28699 10.0513 8.51086 9.82738 8.78699 9.82738H14.1414C14.6149 9.82738 15 9.44325 15 8.971V1.85675C15 1.38425 14.6149 1 14.1414 1H6.89324C6.39524 1 6.17236 1.43037 6.17236 1.85675V7.223C6.17236 7.49913 5.94849 7.723 5.67236 7.723C5.39624 7.723 5.17236 7.49913 5.17236 7.223V1.85675C5.17236 0.780875 5.89611 0 6.89324 0H14.1412C15.1662 0 16 0.833 16 1.85675V8.971C16 9.99463 15.1662 10.8274 14.1414 10.8274Z" fill="black"/>
<path d="M13.4309 2.07715H10.4467C10.1706 2.07715 9.94674 2.30102 9.94674 2.57715C9.94674 2.85327 10.1706 3.07715 10.4467 3.07715H12.2236L2.22749 13.0713C2.03224 13.2665 2.03224 13.5831 2.22749 13.7784C2.32512 13.876 2.45312 13.9249 2.58112 13.9249C2.70899 13.9249 2.83699 13.876 2.93462 13.7785L12.931 3.78402V5.54602C12.931 5.82215 13.1549 6.04602 13.431 6.04602C13.7071 6.04602 13.931 5.82215 13.931 5.54602V2.57715C13.9309 2.30102 13.707 2.07715 13.4309 2.07715Z" fill="black"/>
</g>
<defs>
<clipPath id="clip0_12_422">
<rect width="16" height="16" fill="white"/>
</clipPath>
</defs>
</svg>
