<svg width="16" height="16" viewBox="0 0 16 16" fill="none" xmlns="http://www.w3.org/2000/svg">
<g clip-path="url(#clip0_40583_2715)">
<path fill-rule="evenodd" clip-rule="evenodd" d="M4.46967 0.220647C4.61032 0.0799942 4.80109 0.000976562 5 0.000976562H11C11.1989 0.000976562 11.3897 0.0799942 11.5303 0.220647L15.7803 4.47065C15.921 4.6113 16 4.80207 16 5.00098V11.001C16 11.1999 15.921 11.3907 15.7803 11.5313L11.5303 15.7813C11.3897 15.922 11.1989 16.001 11 16.001H5C4.80109 16.001 4.61032 15.922 4.46967 15.7813L0.21967 11.5313C0.0790176 11.3907 0 11.1999 0 11.001V5.00098C0 4.80207 0.0790176 4.6113 0.21967 4.47065L4.46967 0.220647ZM5.31066 1.50098L1.5 5.31164V10.6903L5.31066 14.501H10.6893L14.5 10.6903V5.31164L10.6893 1.50098H5.31066ZM8 4.00098C8.41421 4.00098 8.75 4.33677 8.75 4.75098V8.25098C8.75 8.66519 8.41421 9.00098 8 9.00098C7.58579 9.00098 7.25 8.66519 7.25 8.25098V4.75098C7.25 4.33677 7.58579 4.00098 8 4.00098ZM8 12.001C8.55229 12.001 9 11.5533 9 11.001C9 10.4487 8.55229 10.001 8 10.001C7.44772 10.001 7 10.4487 7 11.001C7 11.5533 7.44772 12.001 8 12.001Z" fill="white"/>
</g>
<defs>
<clipPath id="clip0_40583_2715">
<rect width="16" height="16" fill="white" transform="translate(0 0.000976562)"/>
</clipPath>
</defs>
</svg>
