<svg width="14" height="11" viewBox="0 0 14 11" fill="none" xmlns="http://www.w3.org/2000/svg">
<path d="M7.00005 8.07752C3.5978 8.07752 3.5978 2.9226 7.00005 2.9226C10.3636 2.9226 10.509 8.07752 7.00005 8.07752ZM7.00005 3.95358C4.93808 3.95358 4.93808 7.04654 7.00005 7.04654C9.06202 7.04654 9.06202 3.95358 7.00005 3.95358Z" fill="black"/>
<path d="M7 10.1394C4.44883 10.1394 2.00591 8.7842 0.2986 6.42067C0.10451 6.15293 0 5.83069 0 5.5C0 5.16931 0.10451 4.84707 0.2986 4.57933C2.00591 2.2158 4.44883 0.860569 7 0.860569C9.55117 0.860569 11.9941 2.2158 13.7014 4.57933C13.8955 4.84707 14 5.16931 14 5.5C14 5.83069 13.8955 6.15293 13.7014 6.42067C11.9941 8.7842 9.55117 10.1394 7 10.1394ZM1.13215 5.81651C2.66729 7.93931 4.75091 9.10845 7 9.10845C9.24909 9.10845 11.3327 7.93931 12.8678 5.81651C12.9346 5.72439 12.9706 5.61352 12.9706 5.49974C12.9706 5.38596 12.9346 5.27509 12.8678 5.18297C11.3327 3.06069 9.24909 1.89155 7 1.89155C4.75091 1.89155 2.66729 3.06069 1.13215 5.18349C1.06537 5.27561 1.02941 5.38648 1.02941 5.50026C1.02941 5.61404 1.06537 5.72439 1.13215 5.81651Z" fill="black"/>
</svg>
