<svg width="24" height="24" viewBox="0 0 24 24" fill="none" xmlns="http://www.w3.org/2000/svg">
<path d="M24 6.77155V17.2288C24 20.9682 20.9683 24 17.2288 24H6.77123C3.03147 24 0 20.9682 0 17.2288V6.77155C0 3.03163 3.03147 0 6.77123 0H17.2288C20.9683 0 24 3.03163 24 6.77155Z" fill="#646464"/>
<path d="M9.53248 24L9.54948 15.4276H6.99121V12.3734H9.54874V10.5922H9.53715L9.53977 10.3377C9.54762 9.55781 9.59004 8.6475 9.8442 7.80634C10.1092 6.93041 10.5704 6.23857 11.2546 5.69081C11.831 5.23014 12.532 4.91767 13.282 4.78854C13.8112 4.69715 14.3666 4.65305 14.98 4.65305C15.6926 4.65305 16.4719 4.71341 17.3622 4.83731L17.5794 4.8674V7.73457L16.9849 7.73943L16.0871 7.7456C15.4519 7.75046 14.7871 7.81979 14.2293 8.29579C13.6772 8.76748 13.3877 9.50044 13.3922 10.4162L13.3793 12.0587L13.3771 12.3734H17.3282L16.7418 15.5349H13.4302L13.4178 24H9.53248Z" fill="white"/>
</svg>
