<svg width="18" height="18" viewBox="0 0 18 18" fill="none" xmlns="http://www.w3.org/2000/svg">
<g clip-path="url(#clip0_55_22081)">
<path d="M8.39579 13.7619C8.01611 14.1415 7.63466 14.523 7.25497 14.9027C6.64853 15.5091 6.04384 16.1138 5.43739 16.7203C5.30028 16.8574 5.16142 16.9962 5.02431 17.1333C4.9997 17.158 4.97333 17.1808 4.94521 17.2019C4.80107 17.3074 4.62001 17.3496 4.44599 17.3302C4.29306 17.3126 4.1454 17.2476 4.03114 17.1333C3.65146 16.7537 3.27001 16.3722 2.89032 15.9925C2.28564 15.3861 1.67919 14.7796 1.0745 14.1749C0.937394 14.0378 0.798527 13.899 0.661417 13.7619C0.401261 13.5017 0.381925 13.0236 0.661417 12.7669C0.94091 12.5103 1.37685 12.4892 1.65458 12.7669C2.03427 13.1466 2.41571 13.5281 2.7954 13.9078C3.13993 14.2523 3.48271 14.5951 3.82724 14.9396V1.99858C3.82724 1.79995 3.82548 1.60307 3.82724 1.40444V1.37807C3.82724 1.01069 4.15068 0.657368 4.53036 0.674946C4.91181 0.692524 5.23349 0.984321 5.23349 1.37807V14.9361C5.81884 14.3507 6.40419 13.7654 6.98954 13.18C7.12665 13.0429 7.26552 12.904 7.40263 12.7669C7.66279 12.5068 8.14091 12.4874 8.39755 12.7669C8.65595 13.0482 8.67528 13.4841 8.39579 13.7619Z" fill="#646464"/>
<path d="M7.24575 9.36221C6.85024 9.36221 6.55844 9.68389 6.54262 10.0653C6.52504 10.445 6.87836 10.7685 7.24575 10.7685C7.25278 10.7685 7.25805 10.7685 7.26332 10.7685C7.6518 10.7737 8.04204 10.7685 8.43051 10.7685C9.23032 10.7685 10.0284 10.7685 10.8282 10.7685C11.7528 10.7685 12.6756 10.7685 13.6002 10.7685C14.3631 10.7685 15.1278 10.7685 15.8907 10.7685C16.2088 10.7685 16.527 10.7685 16.8452 10.7685C17.2389 10.7685 17.5307 10.4468 17.5483 10.0653C17.5659 9.68564 17.2125 9.36221 16.8452 9.36221C16.8381 9.36221 16.8329 9.36221 16.8276 9.36221C16.4391 9.35693 16.0489 9.36221 15.6604 9.36221C14.8606 9.36221 14.0625 9.36221 13.2627 9.36221C12.3381 9.36221 11.4153 9.36221 10.4907 9.36221C9.72778 9.36221 8.96313 9.36221 8.20024 9.36221C7.88207 9.36221 7.56391 9.36221 7.24575 9.36221Z" fill="#646464"/>
<path d="M14.0309 7.2001C14.4247 7.2001 14.7164 6.87842 14.734 6.49697C14.7516 6.11729 14.3983 5.79385 14.0309 5.79385C14.0256 5.79385 14.0221 5.79385 14.0186 5.79385C13.7444 5.78857 13.4702 5.79385 13.1959 5.79385C12.6299 5.79385 12.0639 5.79385 11.4979 5.79385C10.8457 5.79385 10.1936 5.79385 9.54145 5.79385C9.00004 5.79385 8.45864 5.79385 7.91723 5.79385C7.69399 5.79385 7.46899 5.79385 7.24575 5.79385C6.852 5.79385 6.5602 6.11553 6.54262 6.49697C6.52504 6.87666 6.87836 7.2001 7.24575 7.2001C7.25102 7.2001 7.25454 7.2001 7.25805 7.2001C7.53227 7.20537 7.80649 7.2001 8.08071 7.2001C8.64672 7.2001 9.21274 7.2001 9.77875 7.2001C10.4309 7.2001 11.0831 7.2001 11.7352 7.2001C12.2766 7.2001 12.818 7.2001 13.3594 7.2001C13.5827 7.2001 13.8077 7.2001 14.0309 7.2001Z" fill="#646464"/>
<path d="M11.2184 3.63159C11.6122 3.63159 11.904 3.30991 11.9215 2.92847C11.9391 2.54878 11.5858 2.22534 11.2184 2.22534C11.0549 2.22534 10.8897 2.22534 10.7245 2.22534C10.0143 2.22534 9.30414 2.22534 8.59399 2.22534C8.14399 2.22534 7.69575 2.22534 7.24575 2.22534C6.852 2.22534 6.5602 2.54702 6.54262 2.92847C6.52504 3.30815 6.87836 3.63159 7.24575 3.63159C7.40922 3.63159 7.57446 3.63159 7.73969 3.63159C8.44985 3.63159 9.16 3.63159 9.87016 3.63159C10.3202 3.63159 10.7684 3.63159 11.2184 3.63159Z" fill="#646464"/>
</g>
<defs>
<clipPath id="clip0_55_22081">
<rect width="18" height="18" fill="white"/>
</clipPath>
</defs>
</svg>
