<svg width="24" height="25" viewBox="0 0 24 25" fill="none" xmlns="http://www.w3.org/2000/svg">
<g clip-path="url(#clip0_64_6015)">
<path d="M8.6 22.5C8.1 22.5 7.6 22.3 7.3 22L5.2 20.5C4.2 19.7 3.99999 18.3 4.7 17.3C5.1 16.8 5.2 16.1 4.9 15.4L4.8 15.2C4.6 14.6 4.2 14.2 3.7 14H3.6C2.4 13.6 1.7 12.3 2.1 11.1L2.9 8.5C3.1 7.9 3.5 7.4 4 7.1C4.5 6.8 5.1 6.8 5.7 7C6.29999 7.2 7 7.1 7.5 6.7L7.6 6.6C8.1 6.2 8.3 5.7 8.3 5.1V4.8C8.3 3.5 9.3 2.5 10.6 2.5H13.2C13.8 2.5 14.4 2.7 14.8 3.2C15.2 3.6 15.5 4.3 15.5 4.9V5.2C15.5 5.8 15.7 6.3 16.2 6.6L16.3 6.7C16.8 7 17.3 7.1 17.9 7L18.2 6.9C19.4 6.5 20.7 7.1 21.1 8.3V8.4L21.9 10.9C22.3 12.1 21.6 13.4 20.4 13.8L20.2 13.9C19.6 14.1 19.1 14.6 19 15.2C18.8 15.8 18.9 16.4 19.2 16.8L19.5 17.2C20.2 18.2 20 19.7 19 20.4L17 22C16 22.8 14.6 22.6 13.9 21.6L13.8 21.5L13.7 21.3C13.4 20.8 12.8 20.5 12.2 20.5C11.6 20.5 11.1 20.8 10.8 21.3L10.5 21.5C10.2 22 9.6 22.4 9 22.5C8.9 22.5 8.7 22.5 8.6 22.5ZM4.4 12.1C5.5 12.5 6.4 13.4 6.8 14.6V14.7C7.2 15.9 7.1 17.3 6.3 18.3C6.2 18.4 6.2 18.7 6.3 18.8L8.5 20.5C8.6 20.6 8.79999 20.6 8.89999 20.5L9.1 20.2C10.3 18.5 12.6 18.1 14.3 19.2C14.7 19.5 15 19.8 15.3 20.2L15.4 20.4C15.4 20.5 15.5 20.5 15.6 20.5C15.7 20.5 15.7 20.5 15.8 20.5L17.9 18.9C18 18.8 18.1 18.6 18 18.4L17.7 18C17 17 16.8 15.7 17.2 14.6C17.6 13.4 18.5 12.4 19.7 12L19.9 11.9C20.1 11.8 20.2 11.6 20.1 11.5L19.3 9C19.3 8.9 19.2 8.8 19.1 8.8C19 8.8 19 8.8 18.9 8.8L18.6 8.9C17.3 9.2 16 9 15 8.2V8.1C14.1 7.4 13.5 6.3 13.5 5.1V4.8C13.5 4.7 13.5 4.6 13.4 4.5C13.4 4.5 13.3 4.5 13.2 4.5H10.7C10.5 4.5 10.4 4.7 10.4 4.8V5C10.4 6.2 9.79999 7.4 8.89999 8.1L8.7 8.3C7.7 9.1 6.3 9.3 5.1 8.9H5C4.9 8.9 4.9 9 4.9 9L4 11.6C3.9 11.8 3.99999 12 4.2 12L4.4 12.1Z" fill="#8C9399"/>
<path d="M12 16C10.1 16 8.5 14.4 8.5 12.5C8.5 10.6 10.1 9 12 9C13.9 9 15.5 10.6 15.5 12.5C15.5 14.4 13.9 16 12 16ZM12 11C11.2 11 10.5 11.7 10.5 12.5C10.5 13.3 11.2 14 12 14C12.8 14 13.5 13.3 13.5 12.5C13.5 11.7 12.8 11 12 11Z" fill="#8C9399"/>
</g>
<defs>
<clipPath id="clip0_64_6015">
<rect width="24" height="24" fill="white" transform="translate(0 0.5)"/>
</clipPath>
</defs>
</svg>
