<svg width="14" height="15" viewBox="0 0 14 15" fill="none" xmlns="http://www.w3.org/2000/svg">
<g clip-path="url(#clip0_149_3395)">
<path d="M6.99978 0.5C3.14005 0.5 0 3.64005 0 7.49978C0 11.3597 3.14005 14.5 6.99978 14.5C10.8597 14.5 14 11.3597 14 7.49978C14 3.64005 10.8597 0.5 6.99978 0.5ZM6.99978 13.625C3.62261 13.625 0.875 10.8773 0.875 7.49978C0.875 4.12261 3.62261 1.375 6.99978 1.375C10.3773 1.375 13.125 4.12261 13.125 7.49978C13.125 10.8773 10.3773 13.625 6.99978 13.625Z" fill="#535353"/>
<path d="M6.96888 10.6129C6.79683 10.6129 6.64873 10.675 6.52438 10.7992C6.40013 10.9234 6.33789 11.0715 6.33789 11.2437C6.33789 11.4161 6.40034 11.564 6.52438 11.6884C6.64863 11.8128 6.79672 11.8748 6.96888 11.8748C7.14103 11.8748 7.28945 11.8128 7.41359 11.6884C7.53784 11.5639 7.59975 11.4157 7.59975 11.2437C7.59975 11.0715 7.53806 10.9232 7.41359 10.7992C7.28923 10.6748 7.14103 10.6129 6.96888 10.6129Z" fill="#535353"/>
<path d="M8.78973 4.13945C8.57569 3.95308 8.3238 3.81056 8.03406 3.71114C7.74477 3.61205 7.43327 3.5625 7.1 3.5625C6.40197 3.5625 5.81681 3.75894 5.34453 4.15094C4.93098 4.49492 4.65897 4.95309 4.52859 5.52578C4.52509 5.54077 4.49884 5.65627 4.55791 5.73523C4.60592 5.79922 4.72722 5.799 4.72722 5.799L5.43138 5.86823C5.43138 5.86823 5.57498 5.88902 5.63842 5.8398C5.71717 5.77887 5.73555 5.66709 5.73839 5.65462C5.80817 5.36609 5.93877 5.1247 6.13017 4.93034C6.37222 4.68447 6.68755 4.56142 7.07605 4.56142C7.25061 4.56142 7.41522 4.59325 7.56998 4.65658C7.72486 4.72023 7.8572 4.80741 7.96866 4.91842C8.07967 5.02955 8.16881 5.16244 8.2363 5.3172C8.30356 5.47186 8.33736 5.64041 8.33736 5.82273C8.33736 6.0055 8.30345 6.17011 8.2363 6.31678C8.16881 6.46378 8.08317 6.60258 7.98058 6.73328C7.87744 6.8642 7.76248 6.99119 7.63539 7.11413C7.50852 7.23717 7.38164 7.35803 7.25488 7.47703C7.09584 7.62797 6.96339 7.75648 6.85609 7.86367C6.74891 7.97119 6.6637 8.08231 6.60038 8.19705C6.53683 8.31244 6.48914 8.44117 6.45764 8.58402C6.42581 8.72697 6.40995 8.90536 6.40995 9.11952V9.37162V9.59267V9.59289C6.41006 9.73147 6.5237 9.845 6.66239 9.845H7.30027C7.43884 9.845 7.55216 9.73158 7.55238 9.593L7.55249 9.32219C7.55249 9.1555 7.56058 9.01681 7.57655 8.90558C7.59208 8.79445 7.62205 8.69306 7.66569 8.60195C7.70911 8.51095 7.7685 8.42367 7.84386 8.34033C7.91955 8.25666 8.02061 8.15559 8.1477 8.03648L8.26659 7.92941L8.98016 7.19167C9.13908 6.99359 9.26191 6.78108 9.34908 6.55511C9.43625 6.32903 9.47978 6.06533 9.47978 5.76367C9.47978 5.41477 9.41842 5.10337 9.29538 4.82961C9.17233 4.55595 9.00378 4.32594 8.78973 4.13945Z" fill="#535353"/>
</g>
<defs>
<clipPath id="clip0_149_3395">
<rect width="14" height="14" fill="white" transform="translate(0 0.5)"/>
</clipPath>
</defs>
</svg>
