<svg width="24" height="24" viewBox="0 0 24 24" fill="none" xmlns="http://www.w3.org/2000/svg">
<path d="M24 6.68876V17.3107C24 21.0052 21.0055 24 17.3111 24H6.68943C2.99505 24 0 21.0052 0 17.3107V6.68876C0 2.99481 2.99505 0 6.68943 0H17.3111C21.0055 0 24 2.99481 24 6.68876Z" fill="#646464"/>
<path d="M12.086 14.5962C10.5861 14.6444 9.35522 13.414 9.404 11.9137C9.44848 10.553 10.5526 9.4483 11.9137 9.40382C13.4142 9.35505 14.6447 10.5861 14.5959 12.0864C14.5518 13.4471 13.4471 14.5517 12.086 14.5962ZM12.0587 7.80073C9.69666 7.76803 7.76818 9.69667 7.8007 12.0587C7.83135 14.3235 9.67573 16.1683 11.941 16.1993C14.3036 16.2318 16.2321 14.3034 16.1996 11.9413C16.1686 9.67611 14.3236 7.83176 12.0587 7.80073Z" fill="white"/>
<path d="M18.4866 15.4338C18.4866 17.1199 17.1197 18.4867 15.4336 18.4867H8.5663C6.88039 18.4867 5.5135 17.1199 5.5135 15.4338V8.56619C5.5135 6.88013 6.88039 5.51382 8.5663 5.51382H15.4336C17.1197 5.51382 18.4866 6.88069 18.4866 8.56657V15.4338ZM15.4342 3.9111H8.5663C5.99567 3.9111 3.91113 5.9956 3.91113 8.56657V15.4338C3.91113 18.0044 5.99529 20.0889 8.5663 20.0889H15.4336C18.0048 20.0889 20.0894 18.0044 20.0894 15.4338V8.56619C20.0894 5.9956 18.0048 3.9111 15.4342 3.9111Z" fill="white"/>
<path d="M16.3288 6.58784C15.6666 6.54523 15.1179 7.09392 15.16 7.75605C15.1949 8.30399 15.6375 8.74597 16.1849 8.78148C16.8474 8.8239 17.3963 8.27521 17.3537 7.61252C17.3187 7.06532 16.8762 6.62278 16.3288 6.58784Z" fill="white"/>
</svg>
