<svg width="24" height="24" viewBox="0 0 24 24" fill="none" xmlns="http://www.w3.org/2000/svg">
<path fill-rule="evenodd" clip-rule="evenodd" d="M20.5193 5.13619C21.1808 5.52207 21.1808 6.47787 20.5193 6.86375L17.5039 8.62271C16.8372 9.0116 16 8.53072 16 7.75893L16 7L7 7C5.89543 7 5 7.89543 5 9C5 10.1046 5.89543 11 7 11L17 11C19.2091 11 21 12.7909 21 15C21 17.2091 19.2091 19 17 19L8.82928 19C8.41744 20.1652 7.30621 21 6 21C4.34314 21 3 19.6568 3 18C3 16.3431 4.34314 15 6 15C7.30623 15 8.41748 15.8348 8.8293 17L17 17C18.1046 17 19 16.1046 19 15C19 13.8954 18.1046 13 17 13L7 13C4.79086 13 3 11.2091 3 9C3 6.79086 4.79086 5 7 5L16 5L16 4.24101C16 3.46922 16.8372 2.98835 17.5039 3.37723L20.5193 5.13619ZM7 18C7 17.4477 6.55228 17 6 17C5.44772 17 5 17.4477 5 18C5 18.5523 5.44772 19 6 19C6.55228 19 7 18.5523 7 18Z" fill="#8C9399"/>
</svg>
