<svg width="12" height="13" viewBox="0 0 12 13" fill="none" xmlns="http://www.w3.org/2000/svg">
<path d="M10.875 1.89772H7.81125C7.15411 1.89597 6.51572 2.1167 6 2.52397C5.48428 2.1167 4.84589 1.89597 4.18875 1.89772H1.125C0.826631 1.89772 0.540483 2.01625 0.329505 2.22722C0.118526 2.4382 0 2.72435 0 3.02272L0 4.89772C0 4.99718 0.0395088 5.09256 0.109835 5.16288C0.180161 5.23321 0.275544 5.27272 0.375 5.27272C0.474456 5.27272 0.569839 5.23321 0.640165 5.16288C0.710491 5.09256 0.75 4.99718 0.75 4.89772V3.02272C0.75 2.92326 0.789509 2.82788 0.859835 2.75755C0.930161 2.68723 1.02554 2.64772 1.125 2.64772H4.18875C4.71653 2.64725 5.22667 2.83772 5.625 3.18397V9.77272C5.1864 9.52646 4.69176 9.39731 4.18875 9.39772H0.75V6.39772C0.75 6.29826 0.710491 6.20288 0.640165 6.13255C0.569839 6.06223 0.474456 6.02272 0.375 6.02272C0.275544 6.02272 0.180161 6.06223 0.109835 6.13255C0.0395088 6.20288 0 6.29826 0 6.39772L0 10.5227C0 10.8211 0.118526 11.1072 0.329505 11.3182C0.540483 11.5292 0.826631 11.6477 1.125 11.6477H10.875C11.1734 11.6477 11.4595 11.5292 11.6705 11.3182C11.8815 11.1072 12 10.8211 12 10.5227V3.02272C12 2.72435 11.8815 2.4382 11.6705 2.22722C11.4595 2.01625 11.1734 1.89772 10.875 1.89772ZM10.875 2.64772C10.9745 2.64772 11.0698 2.68723 11.1402 2.75755C11.2105 2.82788 11.25 2.92326 11.25 3.02272V9.39772H7.81125C7.30824 9.39731 6.8136 9.52646 6.375 9.77272V3.18397C6.77333 2.83772 7.28347 2.64725 7.81125 2.64772H10.875ZM10.875 10.8977H1.125C1.02554 10.8977 0.930161 10.8582 0.859835 10.7879C0.789509 10.7176 0.75 10.6222 0.75 10.5227V10.1477H4.18875C4.47815 10.1477 4.76469 10.205 5.03181 10.3163C5.29893 10.4277 5.54133 10.5909 5.745 10.7965C5.79755 10.845 5.86291 10.8775 5.93334 10.8902C6.00377 10.9028 6.07635 10.895 6.1425 10.8677C6.34125 10.7777 6.78375 10.1477 7.81125 10.1477H11.25V10.5227C11.25 10.6222 11.2105 10.7176 11.1402 10.7879C11.0698 10.8582 10.9745 10.8977 10.875 10.8977Z" fill="#38004D"/>
<path d="M2.62478 6.73897C2.62967 6.49179 2.70216 6.25068 2.83437 6.04178C2.96658 5.83288 3.15348 5.66418 3.37478 5.55397C3.50014 5.48482 3.60309 5.38123 3.67147 5.25544C3.73984 5.12965 3.77079 4.98691 3.76064 4.8441C3.75049 4.70129 3.69968 4.56437 3.61421 4.44951C3.52874 4.33465 3.41217 4.24666 3.27829 4.19592C3.14441 4.14519 2.99881 4.13383 2.85868 4.1632C2.71855 4.19257 2.58976 4.26143 2.48752 4.36166C2.38527 4.46188 2.31385 4.58927 2.28169 4.72878C2.24953 4.8683 2.25798 5.0141 2.30603 5.14897C2.33865 5.24199 2.33333 5.34412 2.29122 5.43325C2.24911 5.52238 2.1736 5.59134 2.08103 5.62522C2.0345 5.64185 1.98514 5.64912 1.93579 5.64662C1.88645 5.64411 1.83808 5.63188 1.79348 5.61062C1.74887 5.58937 1.70891 5.5595 1.67588 5.52275C1.64285 5.486 1.61741 5.44308 1.60103 5.39647C1.50555 5.1266 1.48929 4.83505 1.55416 4.55625C1.61903 4.27744 1.76233 4.02301 1.96713 3.82301C2.17193 3.62301 2.42968 3.48579 2.70995 3.42755C2.99022 3.36931 3.2813 3.39248 3.54882 3.49433C3.81635 3.59617 4.04914 3.77244 4.21972 4.00233C4.3903 4.23221 4.49154 4.5061 4.51149 4.79166C4.53144 5.07722 4.46926 5.36252 4.33229 5.61388C4.19533 5.86525 3.9893 6.07217 3.73853 6.21022C3.63584 6.25734 3.54781 6.33137 3.48377 6.42446C3.41973 6.51754 3.38207 6.62622 3.37478 6.73897C3.37478 6.83842 3.33527 6.93381 3.26494 7.00413C3.19462 7.07446 3.09923 7.11397 2.99978 7.11397C2.90032 7.11397 2.80494 7.07446 2.73461 7.00413C2.66429 6.93381 2.62478 6.83842 2.62478 6.73897Z" fill="#9F85EC"/>
<path d="M3 8.64772C2.92583 8.64772 2.85333 8.62573 2.79166 8.58452C2.72999 8.54332 2.68193 8.48475 2.65355 8.41623C2.62516 8.3477 2.61774 8.2723 2.63221 8.19956C2.64668 8.12682 2.68239 8.06 2.73484 8.00756C2.78728 7.95511 2.8541 7.9194 2.92684 7.90493C2.99958 7.89046 3.07498 7.89788 3.14351 7.92627C3.21203 7.95465 3.2706 8.00271 3.3118 8.06438C3.35301 8.12605 3.375 8.19855 3.375 8.27272C3.375 8.37218 3.33549 8.46756 3.26517 8.53789C3.19484 8.60821 3.09946 8.64772 3 8.64772Z" fill="#9F85EC"/>
<path d="M10.125 4.14772H7.5C7.40054 4.14772 7.30516 4.10821 7.23483 4.03789C7.16451 3.96756 7.125 3.87218 7.125 3.77272C7.125 3.67326 7.16451 3.57788 7.23483 3.50756C7.30516 3.43723 7.40054 3.39772 7.5 3.39772H10.125C10.2245 3.39772 10.3198 3.43723 10.3902 3.50756C10.4605 3.57788 10.5 3.67326 10.5 3.77272C10.5 3.87218 10.4605 3.96756 10.3902 4.03789C10.3198 4.10821 10.2245 4.14772 10.125 4.14772Z" fill="#9F85EC"/>
<path d="M10.125 5.64772H7.5C7.40054 5.64772 7.30516 5.60821 7.23483 5.53789C7.16451 5.46756 7.125 5.37218 7.125 5.27272C7.125 5.17326 7.16451 5.07788 7.23483 5.00756C7.30516 4.93723 7.40054 4.89772 7.5 4.89772H10.125C10.2245 4.89772 10.3198 4.93723 10.3902 5.00756C10.4605 5.07788 10.5 5.17326 10.5 5.27272C10.5 5.37218 10.4605 5.46756 10.3902 5.53789C10.3198 5.60821 10.2245 5.64772 10.125 5.64772Z" fill="#9F85EC"/>
<path d="M10.125 7.14772H7.5C7.40054 7.14772 7.30516 7.10821 7.23483 7.03789C7.16451 6.96756 7.125 6.87218 7.125 6.77272C7.125 6.67326 7.16451 6.57788 7.23483 6.50756C7.30516 6.43723 7.40054 6.39772 7.5 6.39772H10.125C10.2245 6.39772 10.3198 6.43723 10.3902 6.50756C10.4605 6.57788 10.5 6.67326 10.5 6.77272C10.5 6.87218 10.4605 6.96756 10.3902 7.03789C10.3198 7.10821 10.2245 7.14772 10.125 7.14772Z" fill="#9F85EC"/>
<path d="M9 8.64772H7.5C7.40054 8.64772 7.30516 8.60821 7.23483 8.53789C7.16451 8.46756 7.125 8.37218 7.125 8.27272C7.125 8.17326 7.16451 8.07788 7.23483 8.00756C7.30516 7.93723 7.40054 7.89772 7.5 7.89772H9C9.09946 7.89772 9.19484 7.93723 9.26517 8.00756C9.33549 8.07788 9.375 8.17326 9.375 8.27272C9.375 8.37218 9.33549 8.46756 9.26517 8.53789C9.19484 8.60821 9.09946 8.64772 9 8.64772Z" fill="#9F85EC"/>
</svg>
