<svg width="24" height="24" viewBox="0 0 24 24" fill="none" xmlns="http://www.w3.org/2000/svg">
<g clip-path="url(#clip0_6_4891)">
<path d="M20.6 4.20003C20.4 4.00003 20.1 4.00003 19.8 4.00003L12 5.80003L4.2 4.00003C3.7 3.90003 3.1 4.20003 3 4.80003C3 4.80003 3 4.90003 3 5.00003V17.2C3 17.7 3.3 18.1 3.8 18.2L11.8 20H12.2L20.2 18.2C20.7 18.1 21 17.7 21 17.2V5.00003C21 4.70003 20.9 4.40003 20.6 4.20003ZM5 6.20003L11 7.50003V17.6L5 16.2V6.20003ZM19 16.4L13 17.8V7.60003L19 6.30003V16.4Z" fill="#8C9399"/>
</g>
<defs>
<clipPath id="clip0_6_4891">
<rect width="24" height="24" fill="white"/>
</clipPath>
</defs>
</svg>
