<svg width="14" height="11" viewBox="0 0 14 11" fill="none" xmlns="http://www.w3.org/2000/svg">
<path d="M5.38627 0.115612C5.45712 0.115202 5.52736 0.128781 5.59295 0.155572C5.65854 0.182363 5.71819 0.221837 5.76849 0.271731C5.81895 0.321777 5.859 0.381318 5.88633 0.446919C5.91366 0.512522 5.92774 0.582886 5.92774 0.653954C5.92774 0.72502 5.91366 0.795385 5.88633 0.860987C5.859 0.926589 5.81895 0.98613 5.76849 1.03617L1.30026 5.49903L5.76849 9.96188C5.86987 10.0632 5.92682 10.2007 5.92682 10.3441C5.92682 10.4875 5.86987 10.625 5.76849 10.7263C5.66712 10.8277 5.52963 10.8846 5.38627 10.8846C5.24291 10.8846 5.10542 10.8277 5.00405 10.7263L0.158976 5.88125C0.108518 5.8312 0.0684676 5.77166 0.0411367 5.70606C0.0138058 5.64046 -0.000264657 5.57009 -0.000264651 5.49903C-0.000264644 5.42796 0.0138059 5.35759 0.0411368 5.29199C0.0684676 5.22639 0.108518 5.16685 0.158976 5.1168L5.00405 0.271731C5.05435 0.221837 5.11401 0.182362 5.1796 0.155572C5.24519 0.128781 5.31542 0.115202 5.38627 0.115612Z" fill="black"/>
<path d="M0.541464 4.96067L13.4617 4.96067C13.6044 4.96067 13.7414 5.01739 13.8423 5.11835C13.9433 5.21931 14 5.35624 14 5.49901C14 5.64179 13.9433 5.77872 13.8423 5.87968C13.7414 5.98064 13.6044 6.03735 13.4617 6.03735L0.541464 6.03735C0.398686 6.03735 0.261757 5.98063 0.160798 5.87968C0.0598393 5.77872 0.00312236 5.64179 0.00312238 5.49901C0.00312239 5.35623 0.0598393 5.2193 0.160798 5.11835C0.261757 5.01739 0.398687 4.96067 0.541464 4.96067Z" fill="black"/>
</svg>
