<svg width="24" height="24" viewBox="0 0 24 24" fill="none" xmlns="http://www.w3.org/2000/svg">
<path d="M24 6.72128V17.2791C24 20.9908 20.9906 24 17.2791 24H5.8597C2.62327 24 0 21.3763 0 18.1403V6.72128C0 3.0092 3.00937 0 6.72085 0H17.2791C20.9906 0 24 3.0092 24 6.72128Z" fill="#646464"/>
<path d="M6.95109 5.36394C7.83318 5.36394 8.548 6.08027 8.548 6.96105C8.548 7.8437 7.83318 8.55947 6.95109 8.55947C6.06639 8.55947 5.35306 7.8437 5.35306 6.96105C5.35306 6.08027 6.06639 5.36394 6.95109 5.36394ZM5.57171 9.77122H8.32935V18.6359H5.57171V9.77122Z" fill="white"/>
<path d="M10.0789 9.77122H12.7203V10.9826H12.7575C13.1249 10.2855 14.0244 9.5507 15.3649 9.5507C18.1523 9.5507 18.6675 11.3859 18.6675 13.7737V18.6359H15.9157V14.3258C15.9157 13.2972 15.8955 11.9744 14.4832 11.9744C13.0494 11.9744 12.8308 13.0944 12.8308 14.2506V18.6359H10.0789V9.77122Z" fill="white"/>
</svg>
