<svg width="24" height="25" viewBox="0 0 24 25" fill="none" xmlns="http://www.w3.org/2000/svg">
<path d="M5.14286 5.5H18.8571C19.4857 5.5 20 6.01429 20 6.64286V10.3571C20 10.9857 19.4857 11.5 18.8571 11.5H5.14286C4.51429 11.5 4 10.9857 4 10.3571V6.64286C4 6.01429 4.51429 5.5 5.14286 5.5Z" stroke="#8C9399" stroke-width="2" stroke-linecap="round" stroke-linejoin="round"/>
<path d="M3 15.5C3 14.9477 3.44772 14.5 4 14.5H20C20.5523 14.5 21 14.9477 21 15.5C21 16.0523 20.5523 16.5 20 16.5H4C3.44772 16.5 3 16.0523 3 15.5Z" fill="#8C9399"/>
<path d="M3 19.5C3 18.9477 3.44772 18.5 4 18.5H20C20.5523 18.5 21 18.9477 21 19.5C21 20.0523 20.5523 20.5 20 20.5H4C3.44772 20.5 3 20.0523 3 19.5Z" fill="#8C9399"/>
</svg>
