<svg width="24" height="25" viewBox="0 0 24 25" fill="none" xmlns="http://www.w3.org/2000/svg">
<path fill-rule="evenodd" clip-rule="evenodd" d="M10.3572 3.5H14.0355C14.9373 3.49999 15.6647 3.49999 16.2567 3.54038C16.8654 3.58191 17.4037 3.66948 17.9134 3.8806C19.1386 4.38807 20.1119 5.36144 20.6194 6.58658C20.8305 7.09628 20.9181 7.63456 20.9596 8.24331C21 8.83531 21 9.56272 21 10.4645V10.5355C21 11.4373 21 12.1647 20.9596 12.7567C20.9181 13.3654 20.8305 13.9037 20.6194 14.4134C20.1119 15.6386 19.1386 16.6119 17.9134 17.1194C17.4037 17.3305 16.8654 17.4181 16.2567 17.4596C15.6647 17.5 14.9373 17.5 14.0355 17.5H11.4286C10.969 17.5 10.8774 17.5046 10.8026 17.5197C10.6284 17.5548 10.4667 17.6356 10.3342 17.7539C10.2773 17.8047 10.2186 17.8752 9.94286 18.2429L9.92131 18.2716C9.31559 19.0792 8.8329 19.7228 8.43791 20.1881C8.06664 20.6255 7.64696 21.0654 7.14609 21.2725C5.76787 21.8422 4.1804 21.313 3.41966 20.0303C3.14319 19.5641 3.07138 18.9604 3.03679 18.3878C2.99999 17.7785 3 16.974 3 15.9645V10.8572C2.99999 9.77341 2.99998 8.89926 3.05782 8.19138C3.11737 7.46253 3.24318 6.82234 3.54497 6.23005C4.02433 5.28924 4.78924 4.52433 5.73005 4.04497C6.32234 3.74318 6.96253 3.61737 7.69138 3.55782C8.39926 3.49998 9.27341 3.49999 10.3572 3.5ZM7.85424 5.55118C7.24907 5.60062 6.90138 5.69279 6.63803 5.82698C6.07354 6.1146 5.6146 6.57354 5.32698 7.13803C5.19279 7.40138 5.10062 7.74907 5.05118 8.35424C5.00078 8.97108 5 9.76339 5 10.9V15.9286C5 16.9821 5.00045 17.7257 5.03315 18.2672C5.04933 18.535 5.07195 18.7233 5.09854 18.856C5.12107 18.9685 5.14072 19.0106 5.1418 19.0133C5.39548 19.4375 5.92112 19.6127 6.37856 19.4256C6.38104 19.4241 6.42204 19.4021 6.50757 19.3257C6.60844 19.2355 6.73951 19.0984 6.91318 18.8938C7.26422 18.4803 7.71074 17.8857 8.34286 17.0429C8.35735 17.0235 8.37171 17.0044 8.38594 16.9853C8.59427 16.7071 8.77734 16.4626 9.00255 16.2617C9.40023 15.9068 9.88528 15.6642 10.4078 15.559C10.7037 15.4994 11.0091 15.4997 11.3567 15.5C11.3805 15.5 11.4044 15.5 11.4286 15.5H14C14.9456 15.5 15.6047 15.4995 16.1206 15.4643C16.6275 15.4297 16.9227 15.365 17.1481 15.2716C17.8831 14.9672 18.4672 14.3831 18.7716 13.6481C18.865 13.4227 18.9297 13.1275 18.9643 12.6206C18.9995 12.1047 19 11.4456 19 10.5C19 9.55444 18.9995 8.89534 18.9643 8.37945C18.9297 7.87254 18.865 7.57734 18.7716 7.35195C18.4672 6.61687 17.8831 6.03284 17.1481 5.72836C16.9227 5.635 16.6275 5.57033 16.1206 5.53574C15.6047 5.50054 14.9456 5.5 14 5.5H10.4C9.26339 5.5 8.47108 5.50078 7.85424 5.55118Z" fill="#8C9399"/>
</svg>
