<svg width="24" height="24" viewBox="0 0 24 24" fill="none" xmlns="http://www.w3.org/2000/svg">
<path d="M8.22348 7.37496C7.98917 7.14064 7.60927 7.14064 7.37496 7.37496C7.14064 7.60927 7.14064 7.98917 7.37496 8.22348L11.1507 11.9992L7.37496 15.7749C7.14064 16.0093 7.14064 16.3892 7.37496 16.6235C7.60927 16.8578 7.98917 16.8578 8.22348 16.6235L11.9992 12.8477L15.7749 16.6235C16.0093 16.8578 16.3892 16.8578 16.6235 16.6235C16.8578 16.3892 16.8578 16.0093 16.6235 15.7749L12.8477 11.9992L16.6235 8.22348C16.8578 7.98917 16.8578 7.60927 16.6235 7.37496C16.3892 7.14064 16.0093 7.14064 15.7749 7.37496L11.9992 11.1507L8.22348 7.37496Z" fill="#8C9399"/>
<path fill-rule="evenodd" clip-rule="evenodd" d="M0 6C0 2.6863 2.6863 0 6 0H18C21.3137 0 24 2.6863 24 6V18C24 21.3137 21.3137 24 18 24H6C2.6863 24 0 21.3137 0 18V6ZM6 1.2H18C20.6509 1.2 22.8 3.34903 22.8 6V18C22.8 20.6509 20.6509 22.8 18 22.8H6C3.34903 22.8 1.2 20.6509 1.2 18V6C1.2 3.34903 3.34903 1.2 6 1.2Z" fill="#8C9399"/>
</svg>
