<svg width="13" height="14" viewBox="0 0 13 14" fill="none" xmlns="http://www.w3.org/2000/svg">
<path d="M5.58991 13.2125C5.56075 13.2125 5.53158 13.2125 5.50241 13.2008C3.26825 12.7458 1.45408 11.1008 0.777415 8.91916C0.707415 8.68583 0.835748 8.44083 1.06325 8.37083C1.29658 8.30083 1.54158 8.42916 1.61158 8.65666C2.19491 10.535 3.75241 11.9467 5.67741 12.3375C5.91658 12.3842 6.06825 12.6175 6.01575 12.8567C5.97491 13.0667 5.78825 13.2125 5.58991 13.2125Z" fill="#8C9399"/>
<path d="M12.5665 6.90084C12.3448 6.90084 12.1523 6.73167 12.129 6.51001C11.849 3.74501 9.53899 1.66251 6.76232 1.66251C3.97983 1.66251 1.67567 3.74501 1.39567 6.50417C1.37233 6.74334 1.16233 6.92417 0.917334 6.89501C0.678168 6.87167 0.503168 6.65584 0.526501 6.41667C0.853168 3.20834 3.5365 0.787506 6.76232 0.787506C9.99399 0.787506 12.6773 3.20834 12.9982 6.41667C13.0215 6.65584 12.8465 6.87167 12.6073 6.89501C12.5957 6.90084 12.5782 6.90084 12.5665 6.90084Z" fill="#8C9399"/>
<path d="M7.93476 13.2124C7.73059 13.2124 7.54976 13.0724 7.50892 12.8624C7.46226 12.6232 7.61392 12.3957 7.84726 12.3491C9.76059 11.9582 11.3181 10.5582 11.9073 8.69158C11.9773 8.45825 12.2281 8.32992 12.4556 8.40575C12.6889 8.47575 12.8114 8.72658 12.7414 8.95408C12.0531 11.1241 10.2448 12.7516 8.02226 13.2066C7.99309 13.2066 7.96392 13.2124 7.93476 13.2124Z" fill="#8C9399"/>
</svg>
