<svg width="20" height="20" viewBox="0 0 20 20" fill="none" xmlns="http://www.w3.org/2000/svg">
<path d="M0.00195312 8.68773V12.3068C0.00195312 13.2814 0.358853 14.2287 1.02145 14.9894C1.69035 15.7267 2.59425 16.1886 3.55955 16.2912C3.70565 16.3075 3.85425 16.3199 4.00195 16.3346V16.8977C4.00195 18.2493 5.02445 19.4153 6.43215 19.6711C7.61665 19.8879 8.80955 19.9963 10.002 19.9963C11.1949 19.9963 12.3873 19.8879 13.5708 19.6711C14.9795 19.4153 16.002 18.2493 16.002 16.8977V16.3353C16.1529 16.3204 16.3055 16.3077 16.4532 16.2913C18.4761 16.0647 20.002 14.3518 20.002 12.3069V8.68783C20.002 7.71323 19.6451 6.76593 18.9825 6.00523C18.3136 5.26793 17.4097 4.80603 16.4444 4.70342C16.2983 4.68712 16.1497 4.67473 16.002 4.66003V3.43773C16.002 1.94653 14.9874 0.659425 13.6016 0.380125C11.2344 -0.127675 8.75775 -0.124775 6.41405 0.377225C5.01655 0.659425 4.00195 1.94653 4.00195 3.43773V4.65933C3.85105 4.67423 3.69845 4.68692 3.55075 4.70332C1.52785 4.92992 0.00195312 6.64283 0.00195312 8.68773ZM14.002 16.8977C14.002 17.2815 13.6705 17.6204 13.2124 17.7043C11.0825 18.093 8.92235 18.093 6.79045 17.7043C6.33345 17.6203 6.00195 17.2815 6.00195 16.8977V15.427V13.637C6.00195 13.1643 6.34175 12.7522 6.80415 12.6585C8.43335 12.3393 9.99695 12.2601 11.588 12.4189C12.1191 12.4725 12.6557 12.552 13.1934 12.6575C13.6622 12.7522 14.002 13.1643 14.002 13.6369V15.4269V16.8977ZM6.00195 3.43773C6.00195 2.89473 6.34135 2.43183 6.82125 2.33523C8.91405 1.88603 11.0781 1.88312 13.1943 2.33812C13.6626 2.43192 14.002 2.89482 14.002 3.43773V4.48952C13.6583 4.46683 13.3129 4.45533 12.968 4.43843C12.764 4.42852 12.5608 4.41603 12.3565 4.40812C11.5705 4.37773 10.7844 4.35773 10.002 4.35773C9.21925 4.35773 8.43285 4.37783 7.64665 4.40823C7.44215 4.41613 7.23865 4.42852 7.03435 4.43852C6.69005 4.45532 6.34505 4.46683 6.00195 4.48952V3.43773ZM2.00195 8.68773C2.00195 7.66232 2.76315 6.80392 3.77445 6.69162C4.14745 6.64862 4.53565 6.61352 4.91265 6.58033L5.08595 6.56372C6.71215 6.42702 8.35835 6.35863 10.0029 6.35863C10.825 6.35863 11.6471 6.37572 12.467 6.40992C13.2858 6.44412 14.1015 6.49532 14.9113 6.56372L15.0177 6.57352C15.4161 6.60962 15.8224 6.64582 16.2272 6.69172C16.7111 6.74352 17.1637 6.97693 17.4879 7.33333C17.7222 7.60283 18.002 8.05692 18.002 8.68773V12.3068C18.002 13.3322 17.2408 14.1906 16.2295 14.3029C16.1538 14.3117 16.0781 14.3205 16.002 14.3283V13.6369C16.002 12.216 14.9878 10.9797 13.5845 10.6955C12.9775 10.5767 12.378 10.4877 11.782 10.4283C11.1812 10.3679 10.5864 10.3371 10.002 10.3371C8.83735 10.3371 7.63235 10.4582 6.41305 10.6965C5.01615 10.9797 4.00195 12.2161 4.00195 13.6369V14.3273C3.92675 14.3195 3.85155 14.3107 3.77685 14.3029C3.29295 14.2511 2.84035 14.0177 2.51615 13.6613C2.28175 13.3918 2.00195 12.9377 2.00195 12.3069V8.68773Z" fill="#6E6D72"/>
</svg>
