<svg width="24" height="25" viewBox="0 0 24 25" fill="none" xmlns="http://www.w3.org/2000/svg">
<path d="M12 22.5C17.5228 22.5 22 18.0228 22 12.5C22 6.97715 17.5228 2.5 12 2.5C6.47715 2.5 2 6.97715 2 12.5C2 18.0228 6.47715 22.5 12 22.5Z" stroke="#2C63A4" stroke-width="2" stroke-linecap="round" stroke-linejoin="round"/>
<path d="M12 13.5C13.6569 13.5 15 12.1569 15 10.5C15 8.84315 13.6569 7.5 12 7.5C10.3431 7.5 9 8.84315 9 10.5C9 12.1569 10.3431 13.5 12 13.5Z" stroke="#2C63A4" stroke-width="2" stroke-linecap="round" stroke-linejoin="round"/>
<path d="M5.39844 19.5C6.35939 18.3348 8.95228 17.5 12.0001 17.5C15.048 17.5 17.6409 18.3348 18.6018 19.5" stroke="#2C63A4" stroke-width="2" stroke-linecap="round" stroke-linejoin="round"/>
</svg>
