<svg width="24" height="24" viewBox="0 0 24 24" fill="none" xmlns="http://www.w3.org/2000/svg">
<path fill-rule="evenodd" clip-rule="evenodd" d="M10.2243 6.05526C10.0208 6.00643 9.79315 6 9.01178 6H7.8C6.94342 6 6.36113 6.00078 5.91104 6.03755C5.47262 6.07337 5.24842 6.1383 5.09202 6.21799C4.7157 6.40974 4.40973 6.7157 4.21799 7.09202C4.1383 7.24842 4.07337 7.47262 4.03755 7.91104C4.00078 8.36113 4 8.94342 4 9.8V14.2C4 15.0566 4.00078 15.6389 4.03755 16.089C4.07337 16.5274 4.1383 16.7516 4.21799 16.908C4.40973 17.2843 4.7157 17.5903 5.09202 17.782C5.24842 17.8617 5.47262 17.9266 5.91104 17.9625C6.36113 17.9992 6.94342 18 7.8 18H16.2C17.0566 18 17.6389 17.9992 18.089 17.9625C18.5274 17.9266 18.7516 17.8617 18.908 17.782C19.2843 17.5903 19.5903 17.2843 19.782 16.908C19.8617 16.7516 19.9266 16.5274 19.9624 16.089C19.9992 15.6389 20 15.0566 20 14.2V11.8C20 10.9434 19.9992 10.3611 19.9624 9.91104C19.9266 9.47262 19.8617 9.24842 19.782 9.09202C19.5903 8.7157 19.2843 8.40974 18.908 8.21799C18.7516 8.1383 18.5274 8.07337 18.089 8.03755C17.6389 8.00078 17.0566 8 16.2 8H13C12.7348 8 12.4804 7.89465 12.2929 7.70711L11.6988 7.113C11.1463 6.56048 10.9807 6.40402 10.8024 6.29472C10.6234 6.18506 10.4283 6.10426 10.2243 6.05526ZM9.11366 3.99997C9.74865 3.99967 10.2284 3.99944 10.6911 4.11052C11.0993 4.20851 11.4895 4.37013 11.8474 4.58944C12.2531 4.83807 12.5922 5.17749 13.041 5.62672C13.0647 5.65043 13.0887 5.67445 13.113 5.69878L13.4142 6L16.2413 6C17.0463 5.99999 17.7106 5.99998 18.2518 6.0442C18.8139 6.09012 19.3306 6.18869 19.816 6.43598C20.5686 6.81947 21.1805 7.43139 21.564 8.18404C21.8113 8.66938 21.9099 9.18608 21.9558 9.74818C22 10.2894 22 10.9537 22 11.7587V14.2413C22 15.0463 22 15.7106 21.9558 16.2518C21.9099 16.8139 21.8113 17.3306 21.564 17.816C21.1805 18.5686 20.5686 19.1805 19.816 19.564C19.3306 19.8113 18.8139 19.9099 18.2518 19.9558C17.7106 20 17.0463 20 16.2413 20H7.75873C6.95374 20 6.28938 20 5.74817 19.9558C5.18608 19.9099 4.66937 19.8113 4.18404 19.564C3.43139 19.1805 2.81947 18.5686 2.43597 17.816C2.18868 17.3306 2.09012 16.8139 2.04419 16.2518C1.99998 15.7106 1.99999 15.0463 2 14.2413V9.7587C1.99999 8.95373 1.99998 8.28937 2.04419 7.74818C2.09012 7.18608 2.18868 6.66938 2.43597 6.18404C2.81947 5.43139 3.43139 4.81947 4.18404 4.43598C4.66937 4.18869 5.18608 4.09012 5.74817 4.0442C6.28937 3.99998 6.95373 3.99999 7.7587 4L9.01178 4C9.04618 4 9.08014 3.99999 9.11366 3.99997Z" fill="#8C9399"/>
<path d="M16.2071 12.2929C16.3946 12.4804 16.5 12.7348 16.5 13C16.5 13.2652 16.3946 13.5196 16.2071 13.7071L14.2071 15.7071C13.8166 16.0976 13.1834 16.0976 12.7929 15.7071C12.4024 15.3166 12.4024 14.6834 12.7929 14.2929L14.0858 13L12.7929 11.7071C12.4024 11.3166 12.4024 10.6834 12.7929 10.2929C13.1834 9.90237 13.8166 9.90237 14.2071 10.2929L16.2071 12.2929Z" fill="#8C9399"/>
<path d="M7.79289 12.2929C7.60536 12.4804 7.5 12.7348 7.5 13C7.5 13.2652 7.60536 13.5196 7.79289 13.7071L9.79289 15.7071C10.1834 16.0976 10.8166 16.0976 11.2071 15.7071C11.5976 15.3166 11.5976 14.6834 11.2071 14.2929L9.91421 13L11.2071 11.7071C11.5976 11.3166 11.5976 10.6834 11.2071 10.2929C10.8166 9.90237 10.1834 9.90237 9.79289 10.2929L7.79289 12.2929Z" fill="#8C9399"/>
</svg>
