<svg width="14" height="11" viewBox="0 0 14 11" fill="none" xmlns="http://www.w3.org/2000/svg">
<path d="M8.61373 10.8844C8.54288 10.8848 8.47264 10.8712 8.40705 10.8444C8.34146 10.8176 8.28181 10.7782 8.2315 10.7283C8.18105 10.6782 8.141 10.6187 8.11367 10.5531C8.08633 10.4875 8.07226 10.4171 8.07226 10.346C8.07226 10.275 8.08633 10.2046 8.11367 10.139C8.141 10.0734 8.18105 10.0139 8.2315 9.96383L12.6997 5.50097L8.23151 1.03812C8.13013 0.936751 8.07318 0.799262 8.07318 0.655901C8.07318 0.512539 8.13013 0.37505 8.23151 0.273678C8.33288 0.172307 8.47037 0.115357 8.61373 0.115357C8.75709 0.115357 8.89458 0.172307 8.99595 0.273678L13.841 5.11875C13.8915 5.1688 13.9315 5.22834 13.9589 5.29394C13.9862 5.35954 14.0003 5.42991 14.0003 5.50097C14.0003 5.57204 13.9862 5.64241 13.9589 5.70801C13.9315 5.77361 13.8915 5.83315 13.841 5.8832L8.99595 10.7283C8.94565 10.7782 8.88599 10.8176 8.8204 10.8444C8.75481 10.8712 8.68458 10.8848 8.61373 10.8844Z" fill="black"/>
<path d="M13.4585 6.03933L0.538341 6.03933C0.395564 6.03933 0.258635 5.98261 0.157676 5.88165C0.0567178 5.78069 -1.19091e-07 5.64376 -9.41266e-08 5.50099C-6.91627e-08 5.35821 0.0567179 5.22128 0.157677 5.12032C0.258635 5.01936 0.395564 4.96265 0.538341 4.96265L13.4585 4.96265C13.6013 4.96265 13.7382 5.01937 13.8392 5.12033C13.9402 5.22128 13.9969 5.35821 13.9969 5.50099C13.9969 5.64377 13.9402 5.7807 13.8392 5.88166C13.7382 5.98261 13.6013 6.03933 13.4585 6.03933Z" fill="black"/>
</svg>
