<svg width="18" height="18" viewBox="0 0 18 18" fill="none" xmlns="http://www.w3.org/2000/svg">
<path d="M10.4932 1.25297e-05C9.05569 0.00231265 7.64917 0.418387 6.44141 1.19861C5.23366 1.97882 4.27566 3.09025 3.68168 4.40032C3.0877 5.71039 2.88281 7.1638 3.09146 8.58719C3.30011 10.0106 3.91348 11.3439 4.85842 12.428L0.147763 17.1422C0.100942 17.1887 0.0637791 17.244 0.0384181 17.3049C0.0130572 17.3658 0 17.4312 0 17.4972C0 17.5632 0.0130572 17.6285 0.0384181 17.6894C0.0637791 17.7504 0.100942 17.8057 0.147763 17.8521C0.194201 17.899 0.249451 17.9362 0.310324 17.9616C0.371198 17.9869 0.43649 18 0.502436 18C0.568381 18 0.633673 17.9869 0.694547 17.9616C0.75542 17.9362 0.81067 17.899 0.857108 17.8521L5.56776 13.1379C6.47919 13.9374 7.57082 14.5037 8.749 14.7883C9.92718 15.0728 11.1567 15.0671 12.3322 14.7717C13.5077 14.4762 14.5941 13.8998 15.4981 13.0918C16.4021 12.2839 17.0967 11.2686 17.5225 10.133C17.9482 8.99733 18.0924 7.77529 17.9425 6.57167C17.7927 5.36804 17.3533 4.21876 16.6621 3.2224C15.9709 2.22604 15.0486 1.41233 13.9741 0.851084C12.8997 0.289836 11.7052 -0.00220454 10.4932 1.25297e-05ZM10.4932 13.9977C9.20882 13.9977 7.95327 13.6166 6.88534 12.9025C5.81741 12.1884 4.98505 11.1734 4.49354 9.98584C4.00202 8.79831 3.87342 7.49159 4.12399 6.23092C4.37456 4.97024 4.99306 3.81224 5.90126 2.90335C6.80946 1.99445 7.96658 1.37549 9.2263 1.12473C10.486 0.873963 11.7917 1.00266 12.9784 1.49455C14.165 1.98644 15.1792 2.81943 15.8928 3.88818C16.6064 4.95692 16.9872 6.21343 16.9872 7.4988C16.9872 9.22243 16.303 10.8755 15.0852 12.0942C13.8673 13.313 12.2155 13.9977 10.4932 13.9977Z" fill="#646464"/>
</svg>
