<svg width="18" height="18" viewBox="0 0 18 18" fill="none" xmlns="http://www.w3.org/2000/svg">
<path d="M14 7.99817C16.2 7.99817 18 6.19817 18 3.99817C18 1.79817 16.2 -0.00183105 14 -0.00183105C11.8 -0.00183105 10 1.79817 10 3.99817C10 4.29817 10 4.59817 10.1 4.79817L7 6.39817C6.3 5.49817 5.2 4.99817 4 4.99817C1.8 4.99817 0 6.79817 0 8.99817C0 11.1982 1.8 12.9982 4 12.9982C5.2 12.9982 6.3 12.4982 7 11.5982L10.1 13.0982C10 13.3982 10 13.6982 10 13.9982C10 16.1982 11.8 17.9982 14 17.9982C16.2 17.9982 18 16.1982 18 13.9982C18 11.7982 16.2 9.99817 14 9.99817C12.8 9.99817 11.7 10.4982 11 11.3982L7.9 9.89817C8 9.59817 8 9.29817 8 8.99817C8 8.69817 8 8.39817 7.9 8.19817L11 6.59817C11.7 7.49817 12.8 7.99817 14 7.99817ZM14 11.9982C15.1 11.9982 16 12.8982 16 13.9982C16 15.0982 15.1 15.9982 14 15.9982C12.9 15.9982 12 15.0982 12 13.9982C12 12.8982 12.9 11.9982 14 11.9982ZM14 1.99817C15.1 1.99817 16 2.89817 16 3.99817C16 5.09817 15.1 5.99817 14 5.99817C13.2 5.99817 12.6 5.59817 12.2 4.89817C12.1 4.59817 12 4.29817 12 3.99817C12 2.89817 12.9 1.99817 14 1.99817ZM4 10.9982C2.9 10.9982 2 10.0982 2 8.99817C2 7.89817 2.9 6.99817 4 6.99817C4.8 6.99817 5.4 7.39817 5.8 8.09817C5.9 8.39817 6 8.69817 6 8.99817C6 9.29817 5.9 9.59817 5.8 9.89817C5.4 10.5982 4.8 10.9982 4 10.9982Z" fill="#6E6D72"/>
</svg>
