<svg width="24" height="25" viewBox="0 0 24 25" fill="none" xmlns="http://www.w3.org/2000/svg">
<path d="M21 12C21 13.3 20.7 14.6 20.1 15.8C18.7 18.7 15.7 20.5 12.5 20.5C11.2 20.5 9.9 20.2 8.7 19.6L3 21.5L4.9 15.8C4.3 14.6 4 13.3 4 12C4 8.8 5.8 5.8 8.7 4.4C9.9 3.8 11.2 3.5 12.5 3.5H13C17.3 3.7 20.8 7.2 21 11.5V12Z" stroke="#8C9399" stroke-width="2" stroke-linecap="round" stroke-linejoin="round"/>
<path d="M14.472 15.4849C14.4016 15.4849 14.3663 15.4849 14.2959 15.4481L12.5 14.4543L10.7041 15.4481C10.528 15.5585 10.3167 15.4849 10.2111 15.3009C10.1759 15.2273 10.1759 15.1537 10.1759 15.08L10.528 13.0188L9.08424 11.5465C9.01381 11.3992 8.9786 11.2888 9.01381 11.1416C9.04903 10.9943 9.15467 10.9207 9.29553 10.8839L11.3027 10.5895L12.1831 8.71225C12.2535 8.52821 12.4648 8.45459 12.6409 8.52821C12.7113 8.56502 12.7817 8.63863 12.8169 8.71225L13.6973 10.5895L15.7045 10.8839C15.8453 10.9207 15.951 10.9943 15.9862 11.1416C16.0214 11.2888 15.9862 11.3992 15.9158 11.5097L14.472 12.982L14.8241 15.0432C14.8593 15.1905 14.7889 15.3377 14.6833 15.4113C14.6128 15.4481 14.5424 15.4849 14.472 15.4849Z" fill="#8C9399"/>
</svg>
