<svg width="24" height="24" viewBox="0 0 24 24" fill="none" xmlns="http://www.w3.org/2000/svg">
<path d="M5.14286 5H18.8571C19.4857 5 20 5.51429 20 6.14286V9.85714C20 10.4857 19.4857 11 18.8571 11H5.14286C4.51429 11 4 10.4857 4 9.85714V6.14286C4 5.51429 4.51429 5 5.14286 5Z" stroke="#8C9399" stroke-width="2" stroke-linecap="round" stroke-linejoin="round"/>
<path d="M3 15C3 14.4477 3.44772 14 4 14H20C20.5523 14 21 14.4477 21 15C21 15.5523 20.5523 16 20 16H4C3.44772 16 3 15.5523 3 15Z" fill="#8C9399"/>
<path d="M3 19C3 18.4477 3.44772 18 4 18H20C20.5523 18 21 18.4477 21 19C21 19.5523 20.5523 20 20 20H4C3.44772 20 3 19.5523 3 19Z" fill="#8C9399"/>
</svg>
