<svg width="24" height="24" viewBox="0 0 24 24" fill="none" xmlns="http://www.w3.org/2000/svg">
<path d="M12 22C17.5228 22 22 17.5228 22 12C22 6.47715 17.5228 2 12 2C6.47715 2 2 6.47715 2 12C2 17.5228 6.47715 22 12 22Z" stroke="#8C9399" stroke-width="2" stroke-linecap="round" stroke-linejoin="round"/>
<path d="M12 13C13.6569 13 15 11.6569 15 10C15 8.34315 13.6569 7 12 7C10.3431 7 9 8.34315 9 10C9 11.6569 10.3431 13 12 13Z" stroke="#8C9399" stroke-width="2" stroke-linecap="round" stroke-linejoin="round"/>
<path d="M5.39844 19C6.35939 17.8348 8.95228 17 12.0001 17C15.048 17 17.6409 17.8348 18.6018 19" stroke="#8C9399" stroke-width="2" stroke-linecap="round" stroke-linejoin="round"/>
</svg>
