<svg width="24" height="24" viewBox="0 0 24 24" fill="none" xmlns="http://www.w3.org/2000/svg">
<g clip-path="url(#clip0_6_4924)">
<path d="M21 10C18.2877 10 18.7155 10 16 10C15.4 10 15 10.4 15 11C15 11.6 15.4 12 16 12C18.6182 12 18 12 21 12C21.6 12 22 11.6 22 11C22 10.4 21.6 10 21 10Z" fill="#8C9399"/>
<path d="M21 10C18.2877 10 18.7155 10 16 10C15.4 10 15 10.4 15 11C15 11.6 15.4 12 16 12C18.6182 12 18 12 21 12C21.6 12 22 11.6 22 11C22 10.4 21.6 10 21 10Z" fill="#8C9399"/>
<path d="M17.5 8.5C17.5 11.2123 17.5 10.7845 17.5 13.5C17.5 14.1 17.9 14.5 18.5 14.5C19.1 14.5 19.5 14.1 19.5 13.5C19.5 10.8818 19.5 11.5 19.5 8.5C19.5 7.9 19.1 7.5 18.5 7.5C17.9 7.5 17.5 7.9 17.5 8.5Z" fill="#8C9399"/>
<path d="M17.5 8.5C17.5 11.2123 17.5 10.7845 17.5 13.5C17.5 14.1 17.9 14.5 18.5 14.5C19.1 14.5 19.5 14.1 19.5 13.5C19.5 10.8818 19.5 11.5 19.5 8.5C19.5 7.9 19.1 7.5 18.5 7.5C17.9 7.5 17.5 7.9 17.5 8.5Z" fill="#8C9399"/>
<path d="M10 11C12.2 11 14 9.2 14 7C14 4.8 12.2 3 10 3C7.8 3 6 4.8 6 7C6 9.2 7.8 11 10 11ZM10 5C11.1 5 12 5.9 12 7C12 8.1 11.1 9 10 9C8.9 9 8 8.1 8 7C8 5.9 8.9 5 10 5Z" fill="#8C9399"/>
<path d="M10 13C6.1 13 3 16.1 3 20C3 20.6 3.4 21 4 21C4.6 21 5 20.6 5 20C5 17.2 7.2 15 10 15C12.8 15 15 17.2 15 20C15 20.6 15.4 21 16 21C16.6 21 17 20.6 17 20C17 16.1 13.9 13 10 13Z" fill="#8C9399"/>
</g>
<defs>
<clipPath id="clip0_6_4924">
<rect width="24" height="24" fill="white"/>
</clipPath>
</defs>
</svg>
