<svg width="24" height="24" viewBox="0 0 24 24" fill="none" xmlns="http://www.w3.org/2000/svg">
<path d="M21 11.5C21 12.8 20.7 14.1 20.1 15.3C18.7 18.2 15.7 20 12.5 20C11.2 20 9.9 19.7 8.7 19.1L3 21L4.9 15.3C4.3 14.1 4 12.8 4 11.5C4 8.3 5.8 5.3 8.7 3.9C9.9 3.3 11.2 3 12.5 3H13C17.3 3.2 20.8 6.7 21 11V11.5Z" stroke="#8C9399" stroke-width="2" stroke-linecap="round" stroke-linejoin="round"/>
<path d="M14.472 14.9849C14.4016 14.9849 14.3663 14.9849 14.2959 14.9481L12.5 13.9543L10.7041 14.9481C10.528 15.0585 10.3167 14.9849 10.2111 14.8009C10.1759 14.7273 10.1759 14.6537 10.1759 14.58L10.528 12.5188L9.08424 11.0465C9.01381 10.8992 8.9786 10.7888 9.01381 10.6416C9.04903 10.4943 9.15467 10.4207 9.29553 10.3839L11.3027 10.0895L12.1831 8.21225C12.2535 8.02821 12.4648 7.95459 12.6409 8.02821C12.7113 8.06502 12.7817 8.13863 12.8169 8.21225L13.6973 10.0895L15.7045 10.3839C15.8453 10.4207 15.951 10.4943 15.9862 10.6416C16.0214 10.7888 15.9862 10.8992 15.9158 11.0097L14.472 12.482L14.8241 14.5432C14.8593 14.6905 14.7889 14.8377 14.6833 14.9113C14.6128 14.9481 14.5424 14.9849 14.472 14.9849Z" fill="#8C9399"/>
</svg>
