<svg width="26" height="28" viewBox="0 0 26 28" fill="none" xmlns="http://www.w3.org/2000/svg">
<path d="M0.500001 10.3556C0.501199 10.761 0.60703 11.159 0.807123 11.5109C1.00722 11.8627 1.29471 12.1561 1.64142 12.3625C1.28613 12.6762 1.03444 13.0916 0.919996 13.5531C0.805549 14.0146 0.833791 14.5003 1.00095 14.9453C1.16811 15.3902 1.46621 15.7732 1.85544 16.0431C2.24467 16.313 2.70647 16.4569 3.17914 16.4556L11.0006 16.4556C9.92908 18.0601 8.18865 21.1299 8.18865 24.1609C8.18865 26.1811 9.42582 27.3643 10.6476 27.4888C11.6024 27.5865 12.3622 27.0386 12.5474 26.127C12.892 24.4387 14.5912 22.5747 17.8966 20.2647C19.4054 19.1916 20.7492 17.9011 21.8849 16.4345L25.0303 16.4556C25.3294 16.4479 25.4979 16.2488 25.5 15.99C25.5007 15.8655 25.4524 15.7458 25.3655 15.6571C25.2786 15.5685 25.1603 15.5182 25.0366 15.5173L21.6564 15.4948C21.5822 15.4972 21.5094 15.5162 21.4433 15.5502C21.3772 15.5843 21.3194 15.6326 21.274 15.6917C21.2587 15.7128 19.7328 17.8386 17.3654 19.4937C13.8007 21.9838 12.0358 23.9717 11.6339 25.9377C11.5018 26.5821 10.9146 26.5708 10.7413 26.5546C10.0891 26.4885 9.12037 25.7956 9.12037 24.163C9.12037 20.3146 12.3321 16.1792 12.523 15.933C12.7905 15.7229 13.0085 15.4557 13.1613 15.1508C13.3142 14.8459 13.3981 14.5107 13.407 14.1693C13.416 13.8278 13.3497 13.4887 13.2131 13.176C13.0764 12.8634 12.8727 12.5851 12.6166 12.361C12.9641 12.1556 13.2522 11.8623 13.4524 11.5103C13.6525 11.1583 13.7578 10.7598 13.7578 10.3542C13.7578 9.94862 13.6525 9.55007 13.4524 9.19807C13.2522 8.84605 12.9641 8.55279 12.6166 8.34734C12.8775 8.11832 13.0839 7.83313 13.2203 7.51292C13.3568 7.19271 13.4199 6.84569 13.4049 6.4976C13.3899 6.14951 13.2973 5.80927 13.1338 5.50213C12.9704 5.19498 12.7403 4.9288 12.4607 4.72332C12.7094 4.54133 12.9192 4.31104 13.0779 4.04604C13.2365 3.78105 13.3408 3.48674 13.3845 3.18051C13.4282 2.87427 13.4105 2.56232 13.3324 2.26309C13.2543 1.96387 13.1174 1.68343 12.9298 1.43836L18.0972 1.43836C20.1396 1.43836 21.0119 3.43537 21.0483 3.51978C21.0841 3.60453 21.1439 3.67683 21.2202 3.72772C21.2965 3.77861 21.3859 3.80585 21.4774 3.80607L25.0331 3.80607C25.1567 3.80607 25.2753 3.75664 25.3627 3.66865C25.4502 3.58066 25.4993 3.46132 25.4993 3.33689C25.4993 3.21245 25.4502 3.09311 25.3627 3.00513C25.2753 2.91714 25.1567 2.86771 25.0331 2.86771L21.7661 2.86771C21.3936 2.17765 20.2633 0.5 18.0972 0.499999L5.99739 0.499998C5.37926 0.500742 4.78667 0.748234 4.34965 1.18817C3.91263 1.6281 3.66688 2.22454 3.66633 2.8466C3.66811 3.35562 3.8361 3.84993 4.14442 4.25344L3.82639 4.25344C3.20838 4.25418 2.6159 4.50158 2.1789 4.94136C1.7419 5.38114 1.49607 5.9774 1.49533 6.59934C1.49686 7.16878 1.70631 7.71779 2.08386 8.14194C1.62322 8.29825 1.22276 8.59579 0.938705 8.99281C0.654644 9.38982 0.501236 9.86637 0.500001 10.3556ZM1.78331 14.1097C1.78331 13.7366 1.93059 13.3788 2.19275 13.115C2.45492 12.8511 2.81049 12.7029 3.18124 12.7029L11.0768 12.7029C11.4475 12.7029 11.8031 12.8511 12.0653 13.115C12.3274 13.3788 12.4747 13.7366 12.4747 14.1097C12.4747 14.4829 12.3274 14.8407 12.0653 15.1045C11.8031 15.3684 11.4475 15.5166 11.0768 15.5166L3.17844 15.5166C2.80818 15.5158 2.45332 15.3673 2.19176 15.1035C1.9302 14.8398 1.78331 14.4824 1.78331 14.1097ZM4.59875 2.84801C4.59875 2.47489 4.74603 2.11706 5.0082 1.85322C5.27036 1.58939 5.62593 1.44117 5.99669 1.44117L11.0768 1.44117C11.4475 1.44117 11.8031 1.58939 12.0653 1.85322C12.3274 2.11706 12.4747 2.47489 12.4747 2.84801C12.4747 3.22113 12.3274 3.57896 12.0653 3.84279C11.8031 4.10663 11.4475 4.25485 11.0768 4.25485L5.99739 4.25485C5.81375 4.25494 5.63189 4.21862 5.4622 4.14796C5.29252 4.0773 5.13833 3.97369 5.00844 3.84304C4.87856 3.7124 4.77553 3.55728 4.70523 3.38655C4.63493 3.21581 4.59875 3.03282 4.59875 2.84801ZM3.82639 5.19391L11.0768 5.19391C11.4475 5.19391 11.8031 5.34213 12.0653 5.60597C12.3274 5.8698 12.4747 6.22763 12.4747 6.60075C12.4747 6.97386 12.3274 7.3317 12.0653 7.59553C11.8031 7.85937 11.4475 8.00759 11.0768 8.00759L3.82639 8.00759C3.45563 8.00759 3.10006 7.85937 2.8379 7.59553C2.57574 7.3317 2.42846 6.97386 2.42846 6.60075C2.42846 6.22763 2.57574 5.8698 2.8379 5.60596C3.10006 5.34213 3.45564 5.19391 3.82639 5.19391ZM2.83176 8.94806L11.4291 8.94806C11.7998 8.94806 12.1554 9.09628 12.4176 9.36011C12.6797 9.62394 12.827 9.98178 12.827 10.3549C12.827 10.728 12.6797 11.0858 12.4176 11.3497C12.1554 11.6135 11.7998 11.7617 11.4291 11.7617L2.83176 11.7617C2.461 11.7617 2.10543 11.6135 1.84327 11.3497C1.58111 11.0858 1.43382 10.728 1.43382 10.3549C1.43382 9.98178 1.58111 9.62394 1.84327 9.36011C2.10543 9.09628 2.461 8.94806 2.83176 8.94806Z" fill="black"/>
</svg>
