<svg width="26" height="28" viewBox="0 0 26 28" fill="none" xmlns="http://www.w3.org/2000/svg">
<path d="M25.5 17.6444C25.4988 17.239 25.393 16.841 25.1929 16.4891C24.9928 16.1373 24.7053 15.8439 24.3586 15.6375C24.7139 15.3238 24.9656 14.9084 25.08 14.4469C25.1945 13.9854 25.1662 13.4997 24.9991 13.0547C24.8319 12.6098 24.5338 12.2268 24.1446 11.9569C23.7553 11.687 23.2935 11.5431 22.8209 11.5444H14.9994C16.0709 9.93985 17.8113 6.87013 17.8113 3.8391C17.8113 1.81888 16.5742 0.635734 15.3524 0.511229C14.3976 0.413454 13.6378 0.961417 13.4526 1.87305C13.108 3.56125 11.4088 5.42531 8.10338 7.73534C6.59462 8.80845 5.25081 10.0989 4.11507 11.5655L0.969715 11.5444C0.670556 11.5521 0.502105 11.7512 0.500008 12.01C0.499264 12.1345 0.547649 12.2542 0.634537 12.3429C0.721425 12.4315 0.839713 12.4818 0.963424 12.4827L4.34363 12.5052C4.41784 12.5028 4.4906 12.4838 4.55669 12.4498C4.62279 12.4157 4.68059 12.3674 4.72597 12.3083C4.74135 12.2872 6.26719 10.1614 8.6346 8.50629C12.1993 6.01618 13.9642 4.02832 14.3661 2.06227C14.4982 1.41794 15.0854 1.42919 15.2587 1.44537C15.9109 1.51149 16.8796 2.20436 16.8796 3.83699C16.8796 7.6854 13.6679 11.8208 13.4771 12.067C13.2095 12.2771 12.9915 12.5443 12.8387 12.8492C12.6858 13.1541 12.6019 13.4893 12.593 13.8307C12.584 14.1722 12.6503 14.5113 12.7869 14.824C12.9236 15.1366 13.1273 15.4149 13.3834 15.639C13.0359 15.8444 12.7478 16.1377 12.5476 16.4897C12.3475 16.8417 12.2422 17.2402 12.2422 17.6458C12.2422 18.0514 12.3475 18.4499 12.5476 18.8019C12.7478 19.1539 13.0359 19.4472 13.3834 19.6527C13.1225 19.8817 12.9161 20.1669 12.7797 20.4871C12.6432 20.8073 12.5801 21.1543 12.5951 21.5024C12.6101 21.8505 12.7027 22.1907 12.8662 22.4979C13.0296 22.805 13.2597 23.0712 13.5393 23.2767C13.2907 23.4587 13.0808 23.689 12.9222 23.954C12.7635 24.2189 12.6592 24.5133 12.6155 24.8195C12.5718 25.1257 12.5895 25.4377 12.6676 25.7369C12.7457 26.0361 12.8826 26.3166 13.0703 26.5616H7.90278C5.86039 26.5616 4.98808 24.5646 4.95174 24.4802C4.91589 24.3955 4.85612 24.3232 4.77983 24.2723C4.70355 24.2214 4.6141 24.1941 4.52257 24.1939H0.966919C0.843272 24.1939 0.724689 24.2434 0.637257 24.3314C0.549826 24.4193 0.500707 24.5387 0.500707 24.6631C0.500707 24.7875 0.549826 24.9069 0.637257 24.9949C0.724689 25.0829 0.843272 25.1323 0.966919 25.1323H4.2339C4.60645 25.8223 5.73668 27.5 7.90278 27.5H20.0026C20.6207 27.4993 21.2133 27.2518 21.6504 26.8118C22.0874 26.3719 22.3331 25.7755 22.3337 25.1534C22.3319 24.6444 22.1639 24.1501 21.8556 23.7466H22.1736C22.7916 23.7458 23.3841 23.4984 23.8211 23.0586C24.2581 22.6189 24.5039 22.0226 24.5047 21.4007C24.5031 20.8312 24.2937 20.2822 23.9161 19.8581C24.3768 19.7017 24.7772 19.4042 25.0613 19.0072C25.3454 18.6102 25.4988 18.1336 25.5 17.6444ZM24.2167 13.8903C24.2167 14.2634 24.0694 14.6212 23.8072 14.885C23.5451 15.1489 23.1895 15.2971 22.8188 15.2971H14.9232C14.5525 15.2971 14.1969 15.1489 13.9347 14.885C13.6726 14.6212 13.5253 14.2634 13.5253 13.8903C13.5253 13.5171 13.6726 13.1593 13.9347 12.8955C14.1969 12.6316 14.5525 12.4834 14.9232 12.4834H22.8216C23.1918 12.4842 23.5467 12.6327 23.8082 12.8965C24.0698 13.1602 24.2167 13.5176 24.2167 13.8903ZM21.4013 25.152C21.4013 25.5251 21.254 25.8829 20.9918 26.1468C20.7296 26.4106 20.3741 26.5588 20.0033 26.5588H14.9232C14.5525 26.5588 14.1969 26.4106 13.9347 26.1468C13.6726 25.8829 13.5253 25.5251 13.5253 25.152C13.5253 24.7789 13.6726 24.421 13.9347 24.1572C14.1969 23.8934 14.5525 23.7451 14.9232 23.7451H20.0026C20.1863 23.7451 20.3681 23.7814 20.5378 23.852C20.7075 23.9227 20.8617 24.0263 20.9916 24.157C21.1214 24.2876 21.2245 24.4427 21.2948 24.6135C21.3651 24.7842 21.4013 24.9672 21.4013 25.152ZM22.1736 22.8061H14.9232C14.5525 22.8061 14.1969 22.6579 13.9347 22.394C13.6726 22.1302 13.5253 21.7724 13.5253 21.3993C13.5253 21.0261 13.6726 20.6683 13.9347 20.4045C14.1969 20.1406 14.5525 19.9924 14.9232 19.9924H22.1736C22.5444 19.9924 22.8999 20.1406 23.1621 20.4045C23.4243 20.6683 23.5715 21.0261 23.5715 21.3993C23.5715 21.7724 23.4243 22.1302 23.1621 22.394C22.8999 22.6579 22.5444 22.8061 22.1736 22.8061ZM23.1682 19.0519H14.5709C14.2002 19.0519 13.8446 18.9037 13.5824 18.6399C13.3203 18.3761 13.173 18.0182 13.173 17.6451C13.173 17.272 13.3203 16.9142 13.5824 16.6503C13.8446 16.3865 14.2002 16.2383 14.5709 16.2383H23.1682C23.539 16.2383 23.8946 16.3865 24.1567 16.6503C24.4189 16.9142 24.5662 17.272 24.5662 17.6451C24.5662 18.0182 24.4189 18.3761 24.1567 18.6399C23.8946 18.9037 23.539 19.0519 23.1682 19.0519Z" fill="black"/>
</svg>
