<svg width="20" height="15" viewBox="0 0 20 15" fill="none" xmlns="http://www.w3.org/2000/svg">
<path d="M19.0048 2.50486C19.5544 2.50486 20 2.05929 20 1.50966C20 0.960025 19.5544 0.514465 19.0048 0.514465H6.99519C6.44556 0.514465 6 0.960025 6 1.50966C6 2.05929 6.44556 2.50486 6.99519 2.50486H19.0048Z" fill="black"/>
<path d="M20 7.49995C20 8.04965 19.5544 8.49515 19.0048 8.49515H0.99519C0.44556 8.49515 0 8.04965 0 7.49995C0 6.95035 0.44556 6.50485 0.99519 6.50485H19.0048C19.5544 6.50485 20 6.95035 20 7.49995Z" fill="black"/>
<path d="M20 13.4903C20 14.0399 19.5544 14.4855 19.0048 14.4855H10.9952C10.4456 14.4855 10 14.0399 10 13.4903C10 12.9407 10.4456 12.4951 10.9952 12.4951H19.0048C19.5544 12.4951 20 12.9407 20 13.4903Z" fill="black"/>
</svg>
