<svg width="14" height="18" viewBox="0 0 14 18" fill="none" xmlns="http://www.w3.org/2000/svg">
<path d="M9.00102 8.99666C9.00102 8.44622 9.44819 8 9.9998 8C10.5514 8 10.9986 8.44622 10.9986 8.99666V14.2478C10.9986 14.3168 11.0545 14.3728 11.1236 14.3728C11.1572 14.3728 11.1894 14.3592 11.213 14.3352L12.2807 13.2428C12.7025 12.8116 13.3159 12.8484 13.7017 13.2427C14.0814 13.6308 14.1162 14.237 13.7043 14.6579L10.8187 17.6552C10.804 17.6702 10.804 17.6702 10.789 17.6849C10.3422 18.1156 9.63019 18.1032 9.19863 17.6574L6.29805 14.6608C5.88341 14.237 5.91828 13.6308 6.29805 13.2427C6.68383 12.8484 7.29726 12.8116 7.71903 13.243L8.78663 14.3352C8.83489 14.3846 8.91403 14.3855 8.9634 14.3372C8.98746 14.3137 9.00102 14.2815 9.00102 14.2478V8.99666ZM4.99898 9.00334C4.99898 9.55378 4.55181 10 4.0002 10C3.44859 10 3.00143 9.55378 3.00143 9.00334V3.75219C3.00143 3.68315 2.94546 3.62719 2.87643 3.62719C2.84278 3.62719 2.81055 3.64075 2.78704 3.66481L1.71928 4.75718C1.29746 5.18837 0.684056 5.15159 0.298329 4.75731C-0.0813887 4.36917 -0.116168 3.76301 0.295668 3.34207L3.1813 0.344793C3.19595 0.329759 3.19595 0.329759 3.21098 0.315094C3.65777 -0.115551 4.36981 -0.103232 4.80137 0.342611L7.70195 3.3392C8.11659 3.76304 8.08172 4.36921 7.70195 4.75734C7.31617 5.15161 6.70274 5.18839 6.28097 4.75703L5.21337 3.66481C5.16511 3.61545 5.08597 3.61454 5.0366 3.6628C5.01254 3.68632 4.99898 3.71854 4.99898 3.75219V9.00334Z" fill="black"/>
</svg>
