<svg width="33" height="32" viewBox="0 0 33 32" fill="none" xmlns="http://www.w3.org/2000/svg">
<g clip-path="url(#clip0_149_5875)">
<path d="M21.8339 21.3327L16.5006 15.9993M16.5006 15.9993L11.1672 21.3327M16.5006 15.9993V27.9993M27.6872 24.5193C28.9877 23.8104 30.015 22.6885 30.6071 21.3308C31.1991 19.9732 31.3222 18.457 30.9568 17.0216C30.5915 15.5862 29.7585 14.3133 28.5895 13.4039C27.4204 12.4945 25.9817 12.0003 24.5006 11.9993H22.8206C22.417 10.4383 21.6648 8.98911 20.6205 7.76065C19.5762 6.5322 18.267 5.55646 16.7914 4.90681C15.3157 4.25715 13.712 3.95047 12.1007 4.00984C10.4895 4.0692 8.91265 4.49306 7.48879 5.24955C6.06494 6.00604 4.83111 7.07547 3.88005 8.37744C2.929 9.67941 2.28548 11.18 1.99786 12.7665C1.71025 14.353 1.78603 15.984 2.21951 17.537C2.65299 19.09 3.43288 20.5245 4.50056 21.7327" stroke="#0969DA" stroke-width="2.5" stroke-linecap="round" stroke-linejoin="round"/>
</g>
<defs>
<clipPath id="clip0_149_5875">
<rect width="32" height="32" fill="white" transform="translate(0.5)"/>
</clipPath>
</defs>
</svg>
