<svg width="24" height="24" viewBox="0 0 24 24" fill="none" xmlns="http://www.w3.org/2000/svg">
<g clip-path="url(#clip0_6_4944)">
<path d="M18 4H6C4.3 4 3 5.3 3 7V17C3 18.7 4.3 20 6 20H18C19.7 20 21 18.7 21 17V7C21 5.3 19.7 4 18 4ZM19 17C19 17.6 18.6 18 18 18H6C5.4 18 5 17.6 5 17V12H19V17ZM5 10V7C5 6.4 5.4 6 6 6H18C18.6 6 19 6.4 19 7V10H5Z" fill="#8C9399"/>
<path d="M7 9C7.55228 9 8 8.55228 8 8C8 7.44772 7.55228 7 7 7C6.44772 7 6 7.44772 6 8C6 8.55228 6.44772 9 7 9Z" fill="#8C9399"/>
<path d="M10 9C10.5523 9 11 8.55228 11 8C11 7.44772 10.5523 7 10 7C9.44772 7 9 7.44772 9 8C9 8.55228 9.44772 9 10 9Z" fill="#8C9399"/>
</g>
<defs>
<clipPath id="clip0_6_4944">
<rect width="24" height="24" fill="white"/>
</clipPath>
</defs>
</svg>
