<svg width="18" height="18" viewBox="0 0 18 18" fill="none" xmlns="http://www.w3.org/2000/svg">
<path d="M7.2277 7.86702L1.52517 14.2032C0.969242 14.8209 0.996499 15.7931 1.58229 16.3789C2.17216 16.9687 3.14217 16.9902 3.75799 16.436L10.0942 10.7334C10.603 11.4865 11.534 11.477 12.1619 10.5891L13.1507 9.20788L14.8305 9.22935C16.1234 9.24588 16.6645 8.18532 15.8908 7.14848L14.8746 5.80525L15.4223 4.19031C15.8375 2.9658 14.9961 2.12343 13.7709 2.53891L12.1762 3.0879L10.8127 2.07038C9.77643 1.29707 8.71527 1.83702 8.73181 3.13064L8.77584 4.80653L7.37209 5.79925C6.48458 6.42689 6.47437 7.35808 7.2277 7.86702ZM9.6354 9.5319L2.95523 15.544C2.81181 15.6731 2.56749 15.667 2.43081 15.5303C2.29552 15.3951 2.28891 15.1484 2.41712 15.0059L8.43852 8.31548L9.3339 8.58311L9.6354 9.5319ZM8.07137 7.03162C7.72671 6.92449 7.72697 6.92617 8.02166 6.71777L9.64445 5.57014L9.8859 5.39939L9.88212 5.10369L9.85672 3.11627C9.8521 2.75537 9.85059 2.75614 10.1399 2.972L11.7328 4.16073L11.9698 4.3376L12.2498 4.24263L14.1321 3.60432C14.474 3.48841 14.4728 3.48721 14.3568 3.82902L13.7185 5.71132L13.6236 5.99138L13.8004 6.22838L14.9892 7.82131C15.205 8.11057 15.2058 8.10906 14.8449 8.10445L12.8575 8.07904L12.5618 8.07526L12.391 8.31671L11.2434 9.9395C11.035 10.2342 11.0367 10.2345 10.9295 9.88979L10.3395 7.99179L10.2518 7.70939L9.96937 7.62161L8.07137 7.03162ZM12.2393 1.28033C12.5322 1.57322 13.0071 1.57322 13.3 1.28033C13.5929 0.987437 13.5929 0.512563 13.3 0.21967C13.0071 -0.0732233 12.5322 -0.0732233 12.2393 0.21967C11.9464 0.512563 11.9464 0.987437 12.2393 1.28033ZM13.7197 11.7803C14.0126 12.0732 14.4874 12.0732 14.7803 11.7803C15.0732 11.4874 15.0732 11.0126 14.7803 10.7197C14.4874 10.4268 14.0126 10.4268 13.7197 10.7197C13.4268 11.0126 13.4268 11.4874 13.7197 11.7803ZM12.1098 7.39017C12.2563 7.53661 12.4937 7.53661 12.6402 7.39017C12.7866 7.24372 12.7866 7.00628 12.6402 6.85983C12.4937 6.71339 12.2563 6.71339 12.1098 6.85983C11.9634 7.00628 11.9634 7.24372 12.1098 7.39017ZM10.7197 5.78033C11.0126 6.07322 11.4874 6.07322 11.7803 5.78033C12.0732 5.48744 12.0732 5.01256 11.7803 4.71967C11.4874 4.42678 11.0126 4.42678 10.7197 4.71967C10.4268 5.01256 10.4268 5.48744 10.7197 5.78033ZM6.21967 4.28033C6.51256 4.57322 6.98744 4.57322 7.28033 4.28033C7.57322 3.98744 7.57322 3.51256 7.28033 3.21967C6.98744 2.92678 6.51256 2.92678 6.21967 3.21967C5.92678 3.51256 5.92678 3.98744 6.21967 4.28033ZM15.8598 2.14016C16.0063 2.28661 16.2437 2.28661 16.3902 2.14016C16.5366 1.99372 16.5366 1.75628 16.3902 1.60984C16.2437 1.46339 16.0063 1.46339 15.8598 1.60984C15.7134 1.75628 15.7134 1.99372 15.8598 2.14016ZM17.3598 11.1402C17.5063 11.2866 17.7437 11.2866 17.8902 11.1402C18.0366 10.9937 18.0366 10.7563 17.8902 10.6098C17.7437 10.4634 17.5063 10.4634 17.3598 10.6098C17.2134 10.7563 17.2134 10.9937 17.3598 11.1402ZM16.364 5.25017C16.0327 5.24243 15.7579 5.50472 15.7502 5.836C15.7424 6.16728 16.0047 6.44211 16.336 6.44984L17.2969 6.47227C17.6282 6.48 17.903 6.21772 17.9108 5.88644C17.9185 5.55515 17.6562 5.28033 17.3249 5.2726L16.364 5.25017Z" fill="#646464"/>
</svg>
