<svg width="24" height="24" viewBox="0 0 24 24" fill="none" xmlns="http://www.w3.org/2000/svg">
<path d="M5 3.59998H8C9.1 3.59998 10 4.49998 10 5.59998V8.59998C10 9.69998 9.1 10.6 8 10.6H5C3.9 10.6 3 9.69998 3 8.59998V5.59998C3 4.49998 3.9 3.59998 5 3.59998Z" stroke="#9199A6" stroke-width="2" stroke-linecap="round" stroke-linejoin="round"/>
<path d="M13.9999 5.7L16.0999 3.6C16.8999 2.8 18.0999 2.8 18.8999 3.6L20.9999 5.7C21.7999 6.5 21.7999 7.7 20.9999 8.5L18.8999 10.6C18.0999 11.4 16.8999 11.4 16.0999 10.6L13.9999 8.5C13.1999 7.8 13.1999 6.5 13.9999 5.7Z" stroke="#9199A6" stroke-width="2" stroke-linecap="round" stroke-linejoin="round"/>
<path d="M16 14.6H19C20.1 14.6 21 15.5 21 16.6V19.6C21 20.7 20.1 21.6 19 21.6H16C14.9 21.6 14 20.7 14 19.6V16.6C14 15.5 14.9 14.6 16 14.6Z" stroke="#9199A6" stroke-width="2" stroke-linecap="round" stroke-linejoin="round"/>
<path d="M5 14.6H8C9.1 14.6 10 15.5 10 16.6V19.6C10 20.7 9.1 21.6 8 21.6H5C3.9 21.6 3 20.7 3 19.6V16.6C3 15.5 3.9 14.6 5 14.6Z" stroke="#9199A6" stroke-width="2" stroke-linecap="round" stroke-linejoin="round"/>
</svg>
