<svg width="24" height="25" viewBox="0 0 24 25" fill="none" xmlns="http://www.w3.org/2000/svg">
<g clip-path="url(#clip0_64_6003)">
<path d="M18 4.5H6C4.3 4.5 3 5.8 3 7.5V17.5C3 19.2 4.3 20.5 6 20.5H18C19.7 20.5 21 19.2 21 17.5V7.5C21 5.8 19.7 4.5 18 4.5ZM19 17.5C19 18.1 18.6 18.5 18 18.5H6C5.4 18.5 5 18.1 5 17.5V12.5H19V17.5ZM5 10.5V7.5C5 6.9 5.4 6.5 6 6.5H18C18.6 6.5 19 6.9 19 7.5V10.5H5Z" fill="#8C9399"/>
<path d="M7 9.5C7.55228 9.5 8 9.05228 8 8.5C8 7.94772 7.55228 7.5 7 7.5C6.44772 7.5 6 7.94772 6 8.5C6 9.05228 6.44772 9.5 7 9.5Z" fill="#8C9399"/>
<path d="M10 9.5C10.5523 9.5 11 9.05228 11 8.5C11 7.94772 10.5523 7.5 10 7.5C9.44772 7.5 9 7.94772 9 8.5C9 9.05228 9.44772 9.5 10 9.5Z" fill="#8C9399"/>
</g>
<defs>
<clipPath id="clip0_64_6003">
<rect width="24" height="24" fill="white" transform="translate(0 0.5)"/>
</clipPath>
</defs>
</svg>
