<svg width="24" height="24" viewBox="0 0 24 24" fill="none" xmlns="http://www.w3.org/2000/svg">
<path d="M24 6.77155V17.2288C24 20.9682 20.9682 24 17.2289 24H6.77168C3.03179 24 0 20.9682 0 17.2288V6.77155C0 3.03163 3.03179 0 6.77168 0H17.2289C20.9682 0 24 3.03163 24 6.77155Z" fill="#646464"/>
<path d="M11.7606 12.9895L11.2291 12.2117L7.1003 6.17108H8.85046L12.217 11.0519L12.7505 11.8256L16.8916 17.8289H15.0684L11.7606 12.9895ZM13.3173 11.1586L12.7845 10.3861L9.2943 5.32581H5.49854L10.6612 12.8785L11.1932 13.6571L14.6225 18.6742H18.5016L13.3173 11.1586Z" fill="#FCFCFD"/>
<path d="M11.2288 12.2117L11.7603 12.9895L11.1929 13.6571L6.92734 18.6742H5.72363L10.6609 12.8785L11.2288 12.2117Z" fill="#FCFCFD"/>
<path d="M18.2765 5.32581L13.3172 11.1586L12.7503 11.8256L12.2168 11.0519L12.7844 10.3861L17.0948 5.32581H18.2765Z" fill="#FCFCFD"/>
</svg>
