<svg width="24" height="24" viewBox="0 0 24 24" fill="none" xmlns="http://www.w3.org/2000/svg">
<path d="M24 6.77155V17.2288C24 20.9682 20.9682 24 17.2289 24H6.7715C3.03179 24 0 20.9682 0 17.2288V6.77155C0 3.03163 3.03179 0 6.7715 0H17.2289C20.9682 0 24 3.03163 24 6.77155Z" fill="#646464"/>
<path d="M10.5456 14.1819V9.81814L14.3246 12.0002L10.5456 14.1819ZM18.9695 8.49874C18.8021 7.87286 18.3093 7.38005 17.6836 7.2126C16.5492 6.90836 12.0005 6.90836 12.0005 6.90836C12.0005 6.90836 7.45124 6.90836 6.31686 7.2126C5.69099 7.38005 5.19837 7.87286 5.03092 8.49874C4.72705 9.63294 4.72705 12.0002 4.72705 12.0002C4.72705 12.0002 4.72705 14.3671 5.03092 15.5013C5.19837 16.1272 5.69099 16.6203 6.31686 16.7874C7.45124 17.0917 12.0005 17.0917 12.0005 17.0917C12.0005 17.0917 16.5492 17.0917 17.6836 16.7874C18.3093 16.6203 18.8021 16.1272 18.9695 15.5013C19.2738 14.3671 19.2738 12.0002 19.2738 12.0002C19.2738 12.0002 19.2738 9.63294 18.9695 8.49874Z" fill="white"/>
</svg>
