<svg width="206" height="50" viewBox="0 0 206 50" fill="none" xmlns="http://www.w3.org/2000/svg">
<rect x="4" y="20.5" width="14" height="5" rx="2.5" fill="#7FBAFF"/>
<rect x="16.8604" y="9.27637" width="9.05976" height="4.12698" rx="2.06349" transform="rotate(45 16.8604 9.27637)" fill="#7FBAFF"/>
<rect x="13.9414" y="34.3369" width="9.05976" height="4.12698" rx="2.06349" transform="rotate(-45 13.9414 34.3369)" fill="#7FBAFF"/>
<rect x="30" y="7.5" width="7" height="4" rx="2" transform="rotate(90 30 7.5)" fill="#7FBAFF"/>
<rect x="30" y="32.5" width="5" height="4" rx="2" transform="rotate(90 30 32.5)" fill="#7FBAFF"/>
<path d="M37.92 13.6C37.0667 13.6 36.32 13.2933 35.68 12.68C35.0667 12.04 34.76 11.2933 34.76 10.44C34.76 9.58667 35.0667 8.84 35.68 8.2C36.32 7.56 37.0667 7.24 37.92 7.24C38.8 7.24 39.5467 7.56 40.16 8.2C40.8 8.84 41.12 9.58667 41.12 10.44C41.12 11.2933 40.8 12.04 40.16 12.68C39.5467 13.2933 38.8 13.6 37.92 13.6ZM35.36 36V16H40.52V36H35.36ZM56.3628 15.44C58.5495 15.44 60.3495 16.1733 61.7628 17.64C63.2028 19.1067 63.9228 21.1333 63.9228 23.72V36H58.7628V24.36C58.7628 23.0267 58.4028 22.0133 57.6828 21.32C56.9628 20.6 56.0028 20.24 54.8028 20.24C53.4695 20.24 52.4028 20.6533 51.6028 21.48C50.8028 22.3067 50.4028 23.5467 50.4028 25.2V36H45.2428V16H50.4028V18.24C51.6561 16.3733 53.6428 15.44 56.3628 15.44ZM73.0888 21.68C73.0888 22.2133 73.4354 22.6533 74.1288 23C74.8488 23.32 75.7154 23.6133 76.7288 23.88C77.7421 24.12 78.7554 24.44 79.7688 24.84C80.7821 25.2133 81.6354 25.8533 82.3288 26.76C83.0488 27.6667 83.4088 28.8 83.4088 30.16C83.4088 32.2133 82.6354 33.8 81.0888 34.92C79.5688 36.0133 77.6621 36.56 75.3688 36.56C71.2621 36.56 68.4621 34.9733 66.9688 31.8L71.4488 29.28C72.0354 31.0133 73.3421 31.88 75.3688 31.88C77.2088 31.88 78.1288 31.3067 78.1288 30.16C78.1288 29.6267 77.7688 29.2 77.0488 28.88C76.3554 28.5333 75.5021 28.2267 74.4888 27.96C73.4754 27.6933 72.4621 27.36 71.4488 26.96C70.4354 26.56 69.5688 25.9333 68.8488 25.08C68.1554 24.2 67.8088 23.1067 67.8088 21.8C67.8088 19.8267 68.5288 18.28 69.9688 17.16C71.4354 16.0133 73.2488 15.44 75.4088 15.44C77.0354 15.44 78.5154 15.8133 79.8488 16.56C81.1821 17.28 82.2354 18.32 83.0088 19.68L78.6088 22.08C77.9688 20.72 76.9021 20.04 75.4088 20.04C74.7421 20.04 74.1821 20.1867 73.7288 20.48C73.3021 20.7733 73.0888 21.1733 73.0888 21.68ZM89.2872 13.6C88.4339 13.6 87.6872 13.2933 87.0472 12.68C86.4339 12.04 86.1272 11.2933 86.1272 10.44C86.1272 9.58667 86.4339 8.84 87.0472 8.2C87.6872 7.56 88.4339 7.24 89.2872 7.24C90.1672 7.24 90.9139 7.56 91.5272 8.2C92.1672 8.84 92.4872 9.58667 92.4872 10.44C92.4872 11.2933 92.1672 12.04 91.5272 12.68C90.9139 13.2933 90.1672 13.6 89.2872 13.6ZM86.7272 36V16H91.8872V36H86.7272ZM111.93 16H116.97V35.04C116.97 38.1333 115.943 40.4933 113.89 42.12C111.863 43.7467 109.41 44.56 106.53 44.56C104.37 44.56 102.463 44.1467 100.81 43.32C99.1833 42.4933 97.93 41.28 97.05 39.68L101.45 37.16C102.463 39.0267 104.21 39.96 106.69 39.96C108.317 39.96 109.597 39.5333 110.53 38.68C111.463 37.8267 111.93 36.6133 111.93 35.04V32.88C110.41 34.9067 108.277 35.92 105.53 35.92C102.703 35.92 100.33 34.9333 98.41 32.96C96.5167 30.96 95.57 28.5333 95.57 25.68C95.57 22.8533 96.53 20.44 98.45 18.44C100.37 16.44 102.73 15.44 105.53 15.44C108.277 15.44 110.41 16.4533 111.93 18.48V16ZM102.29 29.64C103.357 30.6533 104.703 31.16 106.33 31.16C107.957 31.16 109.29 30.6533 110.33 29.64C111.397 28.6 111.93 27.28 111.93 25.68C111.93 24.1067 111.397 22.8133 110.33 21.8C109.29 20.76 107.957 20.24 106.33 20.24C104.703 20.24 103.357 20.76 102.29 21.8C101.25 22.8133 100.73 24.1067 100.73 25.68C100.73 27.28 101.25 28.6 102.29 29.64ZM132.769 15.44C134.956 15.44 136.756 16.1733 138.169 17.64C139.609 19.1067 140.329 21.1333 140.329 23.72V36H135.169V24.36C135.169 23.0267 134.809 22.0133 134.089 21.32C133.369 20.6 132.409 20.24 131.209 20.24C129.876 20.24 128.809 20.6533 128.009 21.48C127.209 22.3067 126.809 23.5467 126.809 25.2V36H121.649V8H126.809V18.24C128.062 16.3733 130.049 15.44 132.769 15.44ZM156.175 20.96H151.655V29.28C151.655 29.9733 151.828 30.48 152.175 30.8C152.522 31.12 153.028 31.3067 153.695 31.36C154.362 31.3867 155.188 31.3733 156.175 31.32V36C152.628 36.4 150.122 36.0667 148.655 35C147.215 33.9333 146.495 32.0267 146.495 29.28V20.96H143.015V16H146.495V11.96L151.655 10.4V16H156.175V20.96Z" fill="#0969DA"/>
<path d="M170.933 15.44C173.12 15.44 174.92 16.1733 176.333 17.64C177.773 19.1067 178.493 21.1333 178.493 23.72V36H173.333V24.36C173.333 23.0267 172.973 22.0133 172.253 21.32C171.533 20.6 170.573 20.24 169.373 20.24C168.04 20.24 166.973 20.6533 166.173 21.48C165.373 22.3067 164.973 23.5467 164.973 25.2V36H159.813V8H164.973V18.24C166.226 16.3733 168.213 15.44 170.933 15.44ZM198.059 16H203.219V44H198.059V33.64C196.539 35.5867 194.379 36.56 191.579 36.56C188.886 36.56 186.579 35.5467 184.659 33.52C182.766 31.4667 181.819 28.96 181.819 26C181.819 23.04 182.766 20.5467 184.659 18.52C186.579 16.4667 188.886 15.44 191.579 15.44C194.379 15.44 196.539 16.4133 198.059 18.36V16ZM188.539 30.08C189.606 31.12 190.939 31.64 192.539 31.64C194.139 31.64 195.459 31.12 196.499 30.08C197.539 29.0133 198.059 27.6533 198.059 26C198.059 24.3467 197.539 23 196.499 21.96C195.459 20.8933 194.139 20.36 192.539 20.36C190.939 20.36 189.606 20.8933 188.539 21.96C187.499 23 186.979 24.3467 186.979 26C186.979 27.6533 187.499 29.0133 188.539 30.08Z" fill="#7FBAFF"/>
</svg>
