<svg width="25" height="24" viewBox="0 0 25 24" fill="none" xmlns="http://www.w3.org/2000/svg">
<g clip-path="url(#clip0_64_6049)">
<path d="M7.30005 5.95H17.65V6.95H7.30005V5.95Z" fill="#0969DA"/>
<path d="M7.30005 8.45H17.65V9.45H7.30005V8.45Z" fill="#0969DA"/>
<path d="M7.30005 11H13.45V12H7.30005V11Z" fill="#0969DA"/>
<path d="M24.25 10.95C24.25 10.35 24 9.79999 23.55 9.44999L21.8 7.89999L21.15 8.64999L22.9 10.25C23.1 10.45 23.25 10.7 23.25 11V21.8C23.25 22.35 22.8 22.8 22.25 22.8H2.75C2.2 22.8 1.75 22.35 1.75 21.8V10.95C1.75 10.65 1.9 10.4 2.1 10.2L3.85 8.64999L3.2 7.89999L1.45 9.44999C1 9.84999 0.75 10.4 0.75 10.95V21.75C0.75 22.85 1.65 23.75 2.75 23.75H22.25C23.35 23.75 24.25 22.85 24.25 21.75V10.95Z" fill="#0969DA"/>
<path d="M11.2 0.749995L9.55005 2.2L10.2 2.95L11.85 1.5C12.2 1.2 12.75 1.2 13.1 1.5L14.75 2.95L15.4 2.2L13.75 0.699995C13.05 0.0999953 11.95 0.0999953 11.2 0.749995Z" fill="#0969DA"/>
<path d="M3.34995 22.2L12.15 15.15C12.35 15 12.65 15 12.9 15.15L21.7 22.2L22.2999 21.4L13.5 14.35C12.95 13.9 12.1 13.9 11.5 14.35L2.69995 21.4L3.34995 22.2Z" fill="#0969DA"/>
<path d="M16.4232 15.4608L21.8535 11.2035L22.4705 11.9905L17.0402 16.2478L16.4232 15.4608Z" fill="#0969DA"/>
<path d="M2.56982 11.9994L3.18682 11.2124L8.61712 15.4697L8.00012 16.2567L2.56982 11.9994Z" fill="#0969DA"/>
<path d="M4.19995 3.7V11.25H5.19995V4.2H19.8V11.25H20.7999V3.7C20.7999 3.4 20.5999 3.2 20.2999 3.2H4.69995C4.44995 3.2 4.19995 3.4 4.19995 3.7Z" fill="#0969DA"/>
</g>
<defs>
<clipPath id="clip0_64_6049">
<rect width="24" height="24" fill="white" transform="translate(0.5)"/>
</clipPath>
</defs>
</svg>
